# Created by Kenney (www.kenney.nl)

mtllib 3DM_VendingMachine.mtl

g block

v 0.5 0 1.3
v 0.5 0 -0.3
v -0.5 0 1.3
v -0.5 0 -0.3
v -0.5 0.2 -0.3
v -0.5 0.2 1.3
v 0.5 0.2 -0.3
v 0.5 0.2 1.3

vn 0 -0.2 0
vn -1 0 0
vn 0 0 -1.6
vn 0 0 1.6
vn 1 0 0
vn 0 0.2 0

vt -0.5 -1.3
vt -0.5 0.3
vt 0.5 -1.3
vt 0.5 0.3
vt -0.3 0
vt -0.3 0.2
vt 1.3 0
vt 1.3 0.2
vt 0.5 0
vt -0.5 0
vt 0.5 0.2
vt -0.5 0.2
vt 0.3 0.2
vt 0.3 0
vt -1.3 0.2
vt -1.3 0
vt -0.5 -0.3
vt -0.5 1.3
vt 0.5 -0.3
vt 0.5 1.3

usemtl _defaultMat(Clone)

f 3/3/1 2/2/1 1/1/1
f 2/2/1 3/3/1 4/4/1
f 3/7/2 5/6/2 4/5/2
f 5/6/2 3/7/2 6/8/2
f 5/11/3 2/10/3 4/9/3
f 2/10/3 5/11/3 7/12/3
f 8/11/4 3/10/4 1/9/4
f 3/10/4 8/11/4 6/12/4
f 8/15/5 2/14/5 7/13/5
f 2/14/5 8/15/5 1/16/5
f 5/19/6 8/18/6 7/17/6
f 8/18/6 5/19/6 6/20/6

g block

v -0.3 1 1.5
v -0.3 1 -0.5
v -0.5 1 1.5
v -0.5 1 -0.5
v -0.5 1.2 -0.5
v -0.5 1.2 1.5
v -0.3 1.2 -0.5
v -0.3 1.2 1.5

vn -0.2 0 0
vn 0 0 -2
vn 0 0 2
vn 0.2 0 0

vt 0.3 -1.5
vt 0.3 0.5
vt 0.5 -1.5
vt 0.5 0.5
vt -0.5 1
vt -0.5 1.2
vt 1.5 1
vt 1.5 1.2
vt 0.5 1
vt 0.3 1
vt 0.5 1.2
vt 0.3 1.2
vt -0.3 1
vt -0.3 1.2
vt -1.5 1.2
vt -1.5 1
vt 0.3 -0.5
vt 0.3 1.5
vt 0.5 -0.5
vt 0.5 1.5

usemtl _defaultMat(Clone)

f 11/23/1 10/22/1 9/21/1
f 10/22/1 11/23/1 12/24/1
f 11/27/7 13/26/7 12/25/7
f 13/26/7 11/27/7 14/28/7
f 13/31/8 10/30/8 12/29/8
f 10/30/8 13/31/8 15/32/8
f 16/34/9 11/25/9 9/33/9
f 11/25/9 16/34/9 14/26/9
f 16/35/10 10/29/10 15/31/10
f 10/29/10 16/35/10 9/36/10
f 13/39/6 16/38/6 15/37/6
f 16/38/6 13/39/6 14/40/6

g wedge

v -0.5000001 1.2 1.2
v -0.4 1.2 1.2
v -0.4999999 1.2 -0.2
v -0.3999999 1.2 -0.2
v -0.3999999 1.3 -0.2
v -0.4 1.3 1.2

vn 0 -0.1 0
vn 0.1 0 1.490116E-08
vn -1.192093E-07 0 1.4
vn 1.192093E-07 0 -1.4
vn -0.07071069 0.07071068 -7.450581E-09

vt 0.5000001 -1.2
vt 0.4000001 -1.2
vt 0.4999999 0.2
vt 0.3999999 0.2
vt 0.2 1.2
vt -1.2 1.2
vt 0.2 1.3
vt -1.2 1.3
vt -0.4000001 1.3
vt -0.4000001 1.2
vt -0.5000001 1.2
vt 0.3999999 1.2
vt 0.3999999 1.3
vt 0.4999999 1.2
vt 1.2 1.2
vt -0.2 1.2
vt 1.2 1.3
vt 0.3999999 -0.2
vt 0.4000001 1.2
vt 0.4999999 -0.2

usemtl _defaultMat(Clone)

f 19/43/11 18/42/11 17/41/11
f 18/42/11 19/43/11 20/44/11
f 21/47/12 18/46/12 20/45/12
f 18/46/12 21/47/12 22/48/12
f 17/51/13 18/50/13 22/49/13
f 19/54/14 21/53/14 20/52/14
f 22/57/15 19/56/15 17/55/15
f 19/60/15 22/59/15 21/58/15

g wedge_cornerInner

v -0.5000001 1.2 1.3
v -0.5 1.2 1.2
v -0.4 1.3 1.2
v -0.4 1.2 1.2
v -0.4 1.3 1.3
v -0.5 1.3 1.3
v -0.4 1.2 1.3

vn -0.07071068 0.07071069 -6.181725E-09
vn 8.742279E-09 0 -0.1
vn 1.490116E-08 0.1 0
vn -0.07071068 -7.450581E-09 -0.0707107
vn -8.742279E-09 0 0.1
vn 0.1 1.490116E-08 8.742279E-09
vn -1.490116E-08 -0.1 0

vt 1.3 1.2
vt 1.2 1.2
vt 1.2 1.3
vt 0.4 1.2
vt 0.4 1.3
vt 0.5 1.2
vt 0.5000001 1.2
vt -0.4 1.3
vt -0.4 1.2
vt -0.5000001 1.2
vt -1.3 1.2
vt -1.2 1.3
vt -1.3 1.3
vt 0.5000001 -1.3
vt 0.4 -1.3
vt 0.5 -1.2
vt 0.4 -1.2

usemtl _defaultMat(Clone)

f 25/63/16 24/62/16 23/61/16
f 24/66/17 25/65/17 26/64/17
f 25/64/18 28/20/18 27/65/18
f 25/65/19 23/67/19 28/20/19
f 28/18/20 29/69/20 27/68/20
f 29/69/20 28/18/20 23/70/20
f 25/72/21 29/71/21 26/46/21
f 29/71/21 25/72/21 27/73/21
f 24/76/22 29/75/22 23/74/22
f 29/75/22 24/76/22 26/77/22

g wedge_cornerInner

v -0.5 1.2 -0.3
v -0.5 1.3 -0.3
v -0.4 1.3 -0.2
v -0.4 1.3 -0.3
v -0.4 1.2 -0.2
v -0.5 1.2 -0.2
v -0.4 1.2 -0.3

vn -0.07071068 0 0.07071068
vn 0 0.1 0
vn 0 0 0.1
vn -0.07071068 0.07071068 0
vn 0.1 0 0
vn 0 0 -0.1

vt -0.3 1.3
vt -0.2 1.3
vt 0.4 -0.3
vt 0.4 -0.2
vt 0.5 -0.2
vt 0.4 0.2
vt 0.4 0.3
vt 0.3 1.3
vt 0.2 1.3
vt 0.2 1.2

usemtl _defaultMat(Clone)

f 32/79/23 31/78/23 30/34/23
f 31/19/24 32/81/24 33/80/24
f 32/68/25 35/26/25 34/69/25
f 32/81/26 30/19/26 35/82/26
f 35/11/11 36/84/11 34/83/11
f 36/84/11 35/11/11 30/4/11
f 32/86/27 36/32/27 33/85/27
f 36/32/27 32/86/27 34/87/27
f 31/20/28 36/64/28 30/31/28
f 36/64/28 31/20/28 33/65/28

g block

v 0.4 0.2 1.3
v 0.4 0.2 -0.3
v 0.4 1 -0.3
v 0.4 1 1.3
v 0.5 1 -0.3
v 0.5 1 1.3

vn 0 -0.8 0
vn -0.1 0 0
vn 0 0.8 0

vt -0.4 -1.3
vt -0.4 0.3
vt 1.3 1
vt -0.4 0.2
vt -0.4 1
vt 0.4 0.2
vt 0.4 1
vt -1.3 1
vt -0.4 -0.3
vt -0.4 1.3

usemtl _defaultMat(Clone)

f 37/88/29 7/2/29 8/1/29
f 7/2/29 37/88/29 38/89/29
f 37/8/30 39/33/30 38/6/30
f 39/33/30 37/8/30 40/90/30
f 39/92/3 7/12/3 38/91/3
f 7/12/3 39/92/3 41/25/3
f 42/29/4 37/93/4 8/11/4
f 37/93/4 42/29/4 40/94/4
f 42/95/27 7/13/27 41/30/27
f 7/13/27 42/95/27 8/15/27
f 39/96/31 42/18/31 41/17/31
f 42/18/31 39/96/31 40/97/31

g block

v -0.3 2.3 1.5
v -0.3 2.3 -0.5
v -0.5 2.3 1.5
v -0.5 2.3 -0.5
v -0.5 2.5 -0.5
v -0.5 2.5 1.5
v -0.3 2.5 -0.5
v -0.3 2.5 1.5


vt -0.5 2.3
vt -0.5 2.5
vt 1.5 2.3
vt 1.5 2.5
vt 0.5 2.3
vt 0.3 2.3
vt 0.5 2.5
vt 0.3 2.5
vt -0.3 2.3
vt -0.3 2.5
vt -1.5 2.5
vt -1.5 2.3

usemtl _defaultMat(Clone)

f 45/23/1 44/22/1 43/21/1
f 44/22/1 45/23/1 46/24/1
f 45/100/7 47/99/7 46/98/7
f 47/99/7 45/100/7 48/101/7
f 47/104/8 44/103/8 46/102/8
f 44/103/8 47/104/8 49/105/8
f 50/107/9 45/98/9 43/106/9
f 45/98/9 50/107/9 48/99/9
f 50/108/10 44/102/10 49/104/10
f 44/102/10 50/108/10 43/109/10
f 47/39/6 50/38/6 49/37/6
f 50/38/6 47/39/6 48/40/6

g block

v 0.5 1 1.5
v 0.5 1 -0.5
v -0.396 1 1.5
v -0.396 1 -0.5
v -0.396 2.5 -0.5
v -0.396 2.5 1.5
v 0.5 2.5 -0.5
v 0.5 2.5 1.5

vn 0 -1.5 0
vn -0.896 0 0
vn 0.896 0 0
vn 0 1.5 0

vt -0.5 -1.5
vt -0.5 0.5
vt 0.396 -1.5
vt 0.396 0.5
vt 0.396 1
vt 0.396 2.5
vt -0.396 1
vt -0.396 2.5
vt -0.5 -0.5
vt -0.5 1.5
vt 0.396 -0.5
vt 0.396 1.5

usemtl _defaultMat(Clone)

f 53/112/32 52/111/32 51/110/32
f 52/111/32 53/112/32 54/113/32
f 53/27/33 55/99/33 54/25/33
f 55/99/33 53/27/33 56/101/33
f 55/115/8 52/25/8 54/114/8
f 52/25/8 55/115/8 57/99/8
f 58/104/9 53/116/9 51/29/9
f 53/116/9 58/104/9 56/117/9
f 58/108/34 52/29/34 57/104/34
f 52/29/34 58/108/34 51/36/34
f 55/120/35 58/119/35 57/118/35
f 58/119/35 55/120/35 56/121/35

g wedge

v -0.5000001 2.3 -0.2
v -0.4 2.3 -0.2
v -0.4999999 2.3 1.2
v -0.3999999 2.3 1.2
v -0.3999999 2.2 1.2
v -0.4 2.2 -0.2

vn 0 0.1 8.742279E-09
vn -1.192093E-07 1.223919E-07 -1.4
vn 1.192093E-07 -1.223919E-07 1.4
vn -0.07071069 -0.0707107 -1.490116E-08

vt 0.5000001 -0.2
vt 0.4000001 -0.2
vt -1.2 2.3
vt 0.2 2.3
vt -1.2 2.2
vt 0.2 2.2
vt 0.4000001 2.2
vt 0.4000001 2.3
vt 0.5000001 2.3
vt -0.3999999 2.3
vt -0.3999999 2.2
vt -0.4999999 2.3
vt 0.5000001 0.2
vt 0.4999999 -1.2
vt 0.4000001 0.2
vt 1.2 2.2
vt -0.2 2.2
vt 1.2 2.3

usemtl _defaultMat(Clone)

f 61/54/36 60/123/36 59/122/36
f 60/123/36 61/54/36 62/52/36
f 63/126/12 60/125/12 62/124/12
f 60/125/12 63/126/12 64/127/12
f 59/130/37 60/129/37 64/128/37
f 61/133/38 63/132/38 62/131/38
f 64/136/39 61/135/39 59/134/39
f 61/139/39 64/138/39 63/137/39

g wedge_cornerInner

v -0.5 2.3 -0.3
v -0.5 2.3 -0.2
v -0.4 2.2 -0.2
v -0.4 2.3 -0.2
v -0.4 2.2 -0.3
v -0.5 2.2 -0.3
v -0.4 2.3 -0.3

vn -0.07071068 -0.0707107 0
vn 1.490116E-08 -0.1 0
vn -0.07071069 -7.450581E-09 0.07071068
vn 0.1 1.490116E-08 0
vn -1.490116E-08 0.1 0

vt -0.4 2.3
vt -0.4 2.2
vt -0.3 2.2
vt -0.2 2.2
vt 0.4 2.2
vt 0.4 2.3
vt 0.5 2.2
vt 0.2 2.3
vt 0.2 2.2
vt 0.3 2.2

usemtl _defaultMat(Clone)

f 67/83/40 66/11/40 65/4/40
f 66/98/25 67/141/25 68/140/25
f 67/83/41 70/4/41 69/84/41
f 67/143/42 65/106/42 70/142/42
f 70/146/28 71/145/28 69/144/28
f 71/145/28 70/146/28 65/102/28
f 67/148/43 71/103/43 68/147/43
f 71/103/43 67/148/43 69/149/43
f 66/82/44 71/80/44 65/19/44
f 71/80/44 66/82/44 68/81/44

g wedge_cornerInner

v -0.5 2.3 1.3
v -0.5 2.2 1.3
v -0.4 2.2 1.2
v -0.4 2.2 1.3
v -0.4 2.3 1.2
v -0.5 2.3 1.2
v -0.4 2.3 1.3

vn -0.07071068 0 -0.07071068
vn -0.07071068 -0.07071068 0

vt 0.5 -1.2
vt -1.3 2.2
vt -1.3 2.3
vt -1.2 2.2
vt -0.5 2.2

usemtl _defaultMat(Clone)

f 74/144/45 73/146/45 72/102/45
f 73/3/11 74/77/11 75/75/11
f 74/144/28 77/102/28 76/145/28
f 74/77/46 72/3/46 77/150/46
f 77/31/24 78/65/24 76/64/24
f 78/65/24 77/31/24 72/20/24
f 74/153/27 78/152/27 75/151/27
f 78/152/27 74/153/27 76/124/27
f 73/154/25 78/140/25 72/98/25
f 78/140/25 73/154/25 75/141/25

g block

v -0.3 1.2 -0.3
v -0.5 2.3016 -0.5
v -0.5 2.3016 -0.3
v -0.3 2.3016 -0.5
v -0.3 2.3016 -0.3

vn 0 -1.1016 0
vn 0 0 -0.2
vn 0 0 0.2
vn 0 1.1016 0

vt 0.3 0.3
vt -0.5 2.3016
vt -0.3 2.3016
vt 0.5 2.3016
vt 0.3 2.3016
vt 0.3 -0.3

usemtl _defaultMat(Clone)

f 30/4/47 15/22/47 79/155/47
f 15/22/47 30/4/47 13/24/47
f 30/34/7 80/156/7 13/26/7
f 80/156/7 30/34/7 81/157/7
f 80/158/48 15/32/48 13/31/48
f 15/32/48 80/158/48 82/159/48
f 83/157/49 30/26/49 79/34/49
f 30/26/49 83/157/49 81/156/49
f 83/159/10 15/31/10 82/158/10
f 15/31/10 83/159/10 79/32/10
f 80/39/50 83/160/50 82/37/50
f 83/160/50 80/39/50 81/19/50

g block

v -0.3 1.2 1.3
v -0.5 1.2 1.3
v -0.5 2.3016 1.3
v -0.5 2.3016 1.5
v -0.3 2.3016 1.3
v -0.3 2.3016 1.5


vt 0.3 -1.3
vt 1.3 1.2
vt 1.3 2.3016
vt 1.5 2.3016
vt -1.3 2.3016
vt -1.5 2.3016

usemtl _defaultMat(Clone)

f 14/23/47 84/161/47 16/21/47
f 84/161/47 14/23/47 85/3/47
f 14/28/7 86/163/7 85/162/7
f 86/163/7 14/28/7 87/164/7
f 86/158/48 84/32/48 85/31/48
f 84/32/48 86/158/48 88/159/48
f 89/157/49 14/26/49 16/34/49
f 14/26/49 89/157/49 87/156/49
f 89/166/10 84/71/10 88/165/10
f 84/71/10 89/166/10 16/35/10
f 86/20/50 89/38/50 88/85/50
f 89/38/50 86/20/50 87/40/50

g wedge

v -0.5 1.3 -0.3
v -0.4 1.3 -0.3
v -0.5 2.22 -0.3
v -0.4 2.22 -0.3
v -0.4 2.22 -0.2
v -0.4 1.3 -0.2

vn 0 -0.9200001 0
vn 0 0.9200001 0

vt 0.5 1.3
vt 0.4 1.3
vt 0.5 2.22
vt 0.4 2.22
vt 0.3 2.22
vt 0.3 1.3
vt 0.2 2.22
vt 0.2 1.3
vt 0.4 0.2
vt 0.4 0.3
vt 0.4 -0.3
vt 0.4 -0.2
vt -0.5 1.3
vt -0.5 2.22
vt -0.4 1.3
vt -0.4 2.22

usemtl _defaultMat(Clone)

f 92/169/28 91/168/28 90/167/28
f 91/168/28 92/169/28 93/170/28
f 94/173/27 91/172/27 93/171/27
f 91/172/27 94/173/27 95/174/27
f 90/4/51 91/176/51 95/175/51
f 92/19/52 94/178/52 93/177/52
f 95/181/23 92/180/23 90/179/23
f 92/180/23 95/181/23 94/182/23

g wedge

v -0.5 2.22 1.3
v -0.4 2.22 1.3
v -0.5 1.3 1.3
v -0.4 1.3 1.3
v -0.4 1.3 1.2
v -0.4 2.22 1.2


vt -1.3 1.3
vt -1.3 2.22
vt -1.2 1.3
vt -1.2 2.22
vt 0.4 1.2
vt 0.4 1.3
vt 0.4 -1.3
vt 0.4 -1.2

usemtl _defaultMat(Clone)

f 98/179/25 97/182/25 96/180/25
f 97/182/25 98/179/25 99/181/25
f 100/185/27 97/184/27 99/183/27
f 97/184/27 100/185/27 101/186/27
f 96/20/52 97/188/52 101/187/52
f 98/3/51 100/190/51 99/189/51
f 101/170/45 98/167/45 96/169/45
f 98/167/45 101/170/45 100/168/45

g block

v 0.5 0 -0.5
v -0.5 0 -0.5
v -0.5 1 -0.3

vn 0 -1 0
vn 0 1 0


usemtl _defaultMat(Clone)

f 4/4/53 102/111/53 2/2/53
f 102/111/53 4/4/53 103/24/53
f 4/5/2 12/25/2 103/10/2
f 12/25/2 4/5/2 104/33/2
f 12/29/48 102/10/48 103/9/48
f 102/10/48 12/29/48 52/25/48
f 41/29/49 4/10/49 2/9/49
f 4/10/49 41/29/49 104/25/49
f 41/30/5 102/9/5 52/29/5
f 102/9/5 41/30/5 2/14/5
f 12/39/54 41/17/54 52/118/54
f 41/17/54 12/39/54 104/19/54

g block

v 0.5 0 1.5
v -0.5 0 1.5
v -0.5 1 1.3


vt 1.5 0
vt -1.5 0

usemtl _defaultMat(Clone)

f 106/23/53 1/1/53 105/110/53
f 1/1/53 106/23/53 3/3/53
f 106/191/2 107/90/2 3/7/2
f 107/90/2 106/191/2 11/27/2
f 107/29/48 1/10/48 3/9/48
f 1/10/48 107/29/48 42/25/48
f 51/29/49 106/10/49 105/9/49
f 106/10/49 51/29/49 11/25/49
f 51/36/5 1/16/5 42/95/5
f 1/16/5 51/36/5 105/192/5
f 107/20/54 51/119/54 42/18/54
f 51/119/54 107/20/54 11/40/54

