# Created by Kenney (www.kenney.nl)

mtllib 3DM_Desk.mtl

g cylinder

v -0.4133975 1.2 0.95
v -0.4133975 0 0.95
v -0.4034074 1.2 0.9741181
v -0.4034074 0 0.9741181
v -0.4 1.2 1
v -0.4 0 1
v -0.4034074 1.2 1.025882
v -0.4034074 0 1.025882
v -0.4133975 1.2 1.05
v -0.4133975 0 1.05
v -0.4292893 0 0.9292893
v -0.4292893 1.2 0.9292893
v -0.4292893 1.2 1.070711
v -0.4292893 0 1.070711
v -0.45 0 1.086603
v -0.45 1.2 1.086603
v -0.4741181 0 1.096593
v -0.4741181 1.2 1.096593
v -0.5 0 1.1
v -0.5 1.2 1.1
v -0.5258819 0 1.096593
v -0.5258819 1.2 1.096593
v -0.45 1.2 0.9133974
v -0.45 0 0.9133974
v -0.4741181 1.2 0.9034074
v -0.4741181 0 0.9034074
v -0.5 1.2 0.9
v -0.5 0 0.9
v -0.5258819 1.2 0.9034074
v -0.5258819 0 0.9034074
v -0.55 0 1.086603
v -0.55 1.2 1.086603
v -0.5707107 0 1.070711
v -0.5707107 1.2 1.070711
v -0.5866026 1.2 1.05
v -0.5866026 0 1.05
v -0.5965926 1.2 1.025882
v -0.5965926 0 1.025882
v -0.6 1.2 1
v -0.6 0 1
v -0.5965926 1.2 0.9741181
v -0.5965926 0 0.9741181
v -0.5866026 1.2 0.95
v -0.5866026 0 0.95
v -0.5707107 1.2 0.9292893
v -0.5707107 0 0.9292893
v -0.55 0 0.9133974
v -0.55 1.2 0.9133974

vn 0.1732051 0 -0.1
vn 0.1931852 0 -0.05176381
vn 0.2 0 0
vn 0.1931852 0 0.05176381
vn 0.1732051 0 0.1
vn 0.1414214 0 -0.1414214
vn 0.1414214 0 0.1414214
vn 0.1 0 0.1732051
vn 0.05176381 0 0.1931852
vn 0 0 0.2
vn -0.05176381 0 0.1931852
vn 0.1 0 -0.1732051
vn 0.05176381 0 -0.1931852
vn 0 0 -0.2
vn -0.05176381 0 -0.1931852
vn -0.1 0 0.1732051
vn -0.1414214 0 0.1414214
vn -0.1732051 0 0.1
vn -0.1931852 0 0.05176381
vn -0.2 0 0
vn -0.1931852 0 -0.05176381
vn -0.1732051 0 -0.1
vn -0.1414214 0 -0.1414214
vn -0.1 0 -0.1732051
vn 0 -1.2 0
vn 0 1.2 0

vt -0.95 1.2
vt -0.95 0
vt -0.9741181 1.2
vt -0.9741181 0
vt -1 1.2
vt -1 0
vt -1.025882 1.2
vt -1.025882 0
vt -1.05 1.2
vt -1.05 0
vt -0.9292893 0
vt -0.9292893 1.2
vt -1.070711 1.2
vt -1.070711 0
vt 0.5707107 0
vt 0.55 0
vt 0.5707107 1.2
vt 0.55 1.2
vt 0.5258819 0
vt 0.5258819 1.2
vt 0.5 0
vt 0.5 1.2
vt 0.4741181 0
vt 0.4741181 1.2
vt -0.5707107 1.2
vt -0.55 1.2
vt -0.5707107 0
vt -0.55 0
vt -0.5258819 1.2
vt -0.5258819 0
vt -0.5 1.2
vt -0.5 0
vt -0.4741181 1.2
vt -0.4741181 0
vt 0.45 0
vt 0.45 1.2
vt 0.4292893 0
vt 0.4292893 1.2
vt 1.070711 1.2
vt 1.070711 0
vt 1.05 1.2
vt 1.05 0
vt 1.025882 1.2
vt 1.025882 0
vt 1 1.2
vt 1 0
vt 0.9741181 1.2
vt 0.9741181 0
vt 0.95 1.2
vt 0.95 0
vt 0.9292893 1.2
vt 0.9292893 0
vt -0.4292893 0
vt -0.45 0
vt -0.4292893 1.2
vt -0.45 1.2
vt -0.6 -1
vt -0.5965926 -0.9741181
vt -0.5965926 -1.025882
vt -0.5866026 -0.95
vt -0.5866026 -1.05
vt -0.5707107 -0.9292893
vt -0.5707107 -1.070711
vt -0.55 -0.9133974
vt -0.55 -1.086603
vt -0.5258819 -0.9034074
vt -0.5258819 -1.096593
vt -0.5 -1.1
vt -0.5 -0.9
vt -0.4741181 -1.096593
vt -0.4741181 -0.9034074
vt -0.45 -0.9133974
vt -0.45 -1.086603
vt -0.4292893 -0.9292893
vt -0.4292893 -1.070711
vt -0.4133975 -0.95
vt -0.4133975 -1.05
vt -0.4034074 -0.9741181
vt -0.4034074 -1.025882
vt -0.4 -1
vt -0.6 1
vt -0.5965926 1.025882
vt -0.5965926 0.9741181
vt -0.5866026 0.95
vt -0.5866026 1.05
vt -0.5707107 0.9292893
vt -0.5707107 1.070711
vt -0.55 0.9133974
vt -0.55 1.086603
vt -0.5258819 0.9034074
vt -0.5258819 1.096593
vt -0.5 0.9
vt -0.5 1.1
vt -0.4741181 0.9034074
vt -0.4741181 1.096593
vt -0.45 0.9133974
vt -0.45 1.086603
vt -0.4292893 0.9292893
vt -0.4292893 1.070711
vt -0.4133975 0.95
vt -0.4133975 1.05
vt -0.4034074 0.9741181
vt -0.4034074 1.025882
vt -0.4 1

usemtl custom1(Clone)

f 3/3/2 2/2/1 1/1/1
f 2/2/1 3/3/2 4/4/2
f 5/5/3 4/4/2 3/3/2
f 4/4/2 5/5/3 6/6/3
f 7/7/4 6/6/3 5/5/3
f 6/6/3 7/7/4 8/8/4
f 9/9/5 8/8/4 7/7/4
f 8/8/4 9/9/5 10/10/5
f 11/11/6 1/1/1 2/2/1
f 1/1/1 11/11/6 12/12/6
f 13/13/7 10/10/5 9/9/5
f 10/10/5 13/13/7 14/14/7
f 13/17/7 15/16/8 14/15/7
f 15/16/8 13/17/7 16/18/8
f 16/18/8 17/19/9 15/16/8
f 17/19/9 16/18/8 18/20/9
f 18/20/9 19/21/10 17/19/9
f 19/21/10 18/20/9 20/22/10
f 20/22/10 21/23/11 19/21/10
f 21/23/11 20/22/10 22/24/11
f 11/27/6 23/26/12 12/25/6
f 23/26/12 11/27/6 24/28/12
f 24/28/12 25/29/13 23/26/12
f 25/29/13 24/28/12 26/30/13
f 26/30/13 27/31/14 25/29/13
f 27/31/14 26/30/13 28/32/14
f 28/32/14 29/33/15 27/31/14
f 29/33/15 28/32/14 30/34/15
f 22/24/11 31/35/16 21/23/11
f 31/35/16 22/24/11 32/36/16
f 32/36/16 33/37/17 31/35/16
f 33/37/17 32/36/16 34/38/17
f 35/41/18 33/40/17 34/39/17
f 33/40/17 35/41/18 36/42/18
f 37/43/19 36/42/18 35/41/18
f 36/42/18 37/43/19 38/44/19
f 39/45/20 38/44/19 37/43/19
f 38/44/19 39/45/20 40/46/20
f 41/47/21 40/46/20 39/45/20
f 40/46/20 41/47/21 42/48/21
f 43/49/22 42/48/21 41/47/21
f 42/48/21 43/49/22 44/50/22
f 45/51/23 44/50/22 43/49/22
f 44/50/22 45/51/23 46/52/23
f 45/55/23 47/54/24 46/53/23
f 47/54/24 45/55/23 48/56/24
f 48/56/24 30/34/15 47/54/24
f 30/34/15 48/56/24 29/33/15
f 8/59/25 4/58/25 6/57/25
f 4/58/25 8/59/25 2/60/25
f 2/60/25 8/59/25 10/61/25
f 2/60/25 10/61/25 11/62/25
f 11/62/25 10/61/25 14/63/25
f 11/62/25 14/63/25 24/64/25
f 24/64/25 14/63/25 15/65/25
f 24/64/25 15/65/25 26/66/25
f 26/66/25 15/65/25 17/67/25
f 26/66/25 17/67/25 19/68/25
f 26/66/25 19/68/25 28/69/25
f 28/69/25 19/68/25 21/70/25
f 28/69/25 21/70/25 30/71/25
f 30/71/25 21/70/25 47/72/25
f 47/72/25 21/70/25 31/73/25
f 47/72/25 31/73/25 46/74/25
f 46/74/25 31/73/25 33/75/25
f 46/74/25 33/75/25 44/76/25
f 44/76/25 33/75/25 36/77/25
f 44/76/25 36/77/25 42/78/25
f 42/78/25 36/77/25 38/79/25
f 42/78/25 38/79/25 40/80/25
f 3/83/26 7/82/26 5/81/26
f 7/82/26 3/83/26 1/84/26
f 7/82/26 1/84/26 9/85/26
f 9/85/26 1/84/26 12/86/26
f 9/85/26 12/86/26 13/87/26
f 13/87/26 12/86/26 23/88/26
f 13/87/26 23/88/26 16/89/26
f 16/89/26 23/88/26 25/90/26
f 16/89/26 25/90/26 18/91/26
f 18/91/26 25/90/26 27/92/26
f 18/91/26 27/92/26 20/93/26
f 20/93/26 27/92/26 29/94/26
f 20/93/26 29/94/26 22/95/26
f 22/95/26 29/94/26 48/96/26
f 22/95/26 48/96/26 32/97/26
f 32/97/26 48/96/26 45/98/26
f 32/97/26 45/98/26 34/99/26
f 34/99/26 45/98/26 43/100/26
f 34/99/26 43/100/26 35/101/26
f 35/101/26 43/100/26 41/102/26
f 35/101/26 41/102/26 37/103/26
f 37/103/26 41/102/26 39/104/26

g cylinder

v -0.4133975 1.2 -1.05
v -0.4133975 0 -1.05
v -0.4034074 1.2 -1.025882
v -0.4034074 0 -1.025882
v -0.4 1.2 -1
v -0.4 0 -1
v -0.4034074 1.2 -0.9741181
v -0.4034074 0 -0.9741181
v -0.4133975 1.2 -0.95
v -0.4133975 0 -0.95
v -0.4292893 0 -1.070711
v -0.4292893 1.2 -1.070711
v -0.4292893 1.2 -0.9292893
v -0.4292893 0 -0.9292893
v -0.45 0 -0.9133974
v -0.45 1.2 -0.9133974
v -0.4741181 0 -0.9034074
v -0.4741181 1.2 -0.9034074
v -0.5 0 -0.9
v -0.5 1.2 -0.9
v -0.5258819 0 -0.9034074
v -0.5258819 1.2 -0.9034074
v -0.45 1.2 -1.086603
v -0.45 0 -1.086603
v -0.4741181 1.2 -1.096593
v -0.4741181 0 -1.096593
v -0.5 1.2 -1.1
v -0.5 0 -1.1
v -0.5258819 1.2 -1.096593
v -0.5258819 0 -1.096593
v -0.55 0 -0.9133974
v -0.55 1.2 -0.9133974
v -0.5707107 0 -0.9292893
v -0.5707107 1.2 -0.9292893
v -0.5866026 1.2 -0.95
v -0.5866026 0 -0.95
v -0.5965926 1.2 -0.9741181
v -0.5965926 0 -0.9741181
v -0.6 1.2 -1
v -0.6 0 -1
v -0.5965926 1.2 -1.025882
v -0.5965926 0 -1.025882
v -0.5866026 1.2 -1.05
v -0.5866026 0 -1.05
v -0.5707107 1.2 -1.070711
v -0.5707107 0 -1.070711
v -0.55 0 -1.086603
v -0.55 1.2 -1.086603



usemtl custom1(Clone)

f 51/43/2 50/42/1 49/41/1
f 50/42/1 51/43/2 52/44/2
f 53/45/3 52/44/2 51/43/2
f 52/44/2 53/45/3 54/46/3
f 55/47/4 54/46/3 53/45/3
f 54/46/3 55/47/4 56/48/4
f 57/49/5 56/48/4 55/47/4
f 56/48/4 57/49/5 58/50/5
f 59/40/6 49/41/1 50/42/1
f 49/41/1 59/40/6 60/39/6
f 61/51/7 58/50/5 57/49/5
f 58/50/5 61/51/7 62/52/7
f 61/17/7 63/16/8 62/15/7
f 63/16/8 61/17/7 64/18/8
f 64/18/8 65/19/9 63/16/8
f 65/19/9 64/18/8 66/20/9
f 66/20/9 67/21/10 65/19/9
f 67/21/10 66/20/9 68/22/10
f 68/22/10 69/23/11 67/21/10
f 69/23/11 68/22/10 70/24/11
f 59/27/6 71/26/12 60/25/6
f 71/26/12 59/27/6 72/28/12
f 72/28/12 73/29/13 71/26/12
f 73/29/13 72/28/12 74/30/13
f 74/30/13 75/31/14 73/29/13
f 75/31/14 74/30/13 76/32/14
f 76/32/14 77/33/15 75/31/14
f 77/33/15 76/32/14 78/34/15
f 70/24/11 79/35/16 69/23/11
f 79/35/16 70/24/11 80/36/16
f 80/36/16 81/37/17 79/35/16
f 81/37/17 80/36/16 82/38/17
f 83/1/18 81/11/17 82/12/17
f 81/11/17 83/1/18 84/2/18
f 85/3/19 84/2/18 83/1/18
f 84/2/18 85/3/19 86/4/19
f 87/5/20 86/4/19 85/3/19
f 86/4/19 87/5/20 88/6/20
f 89/7/21 88/6/20 87/5/20
f 88/6/20 89/7/21 90/8/21
f 91/9/22 90/8/21 89/7/21
f 90/8/21 91/9/22 92/10/22
f 93/13/23 92/10/22 91/9/22
f 92/10/22 93/13/23 94/14/23
f 93/55/23 95/54/24 94/53/23
f 95/54/24 93/55/23 96/56/24
f 96/56/24 78/34/15 95/54/24
f 78/34/15 96/56/24 77/33/15
f 56/83/25 52/82/25 54/81/25
f 52/82/25 56/83/25 50/85/25
f 50/85/25 56/83/25 58/84/25
f 50/85/25 58/84/25 59/87/25
f 59/87/25 58/84/25 62/86/25
f 59/87/25 62/86/25 72/89/25
f 72/89/25 62/86/25 63/88/25
f 72/89/25 63/88/25 74/91/25
f 74/91/25 63/88/25 65/90/25
f 74/91/25 65/90/25 67/92/25
f 74/91/25 67/92/25 76/93/25
f 76/93/25 67/92/25 69/94/25
f 76/93/25 69/94/25 78/95/25
f 78/95/25 69/94/25 95/97/25
f 95/97/25 69/94/25 79/96/25
f 95/97/25 79/96/25 94/99/25
f 94/99/25 79/96/25 81/98/25
f 94/99/25 81/98/25 92/101/25
f 92/101/25 81/98/25 84/100/25
f 92/101/25 84/100/25 90/103/25
f 90/103/25 84/100/25 86/102/25
f 90/103/25 86/102/25 88/104/25
f 51/59/26 55/58/26 53/57/26
f 55/58/26 51/59/26 49/61/26
f 55/58/26 49/61/26 57/60/26
f 57/60/26 49/61/26 60/63/26
f 57/60/26 60/63/26 61/62/26
f 61/62/26 60/63/26 71/65/26
f 61/62/26 71/65/26 64/64/26
f 64/64/26 71/65/26 73/67/26
f 64/64/26 73/67/26 66/66/26
f 66/66/26 73/67/26 75/68/26
f 66/66/26 75/68/26 68/69/26
f 68/69/26 75/68/26 77/70/26
f 68/69/26 77/70/26 70/71/26
f 70/71/26 77/70/26 96/73/26
f 70/71/26 96/73/26 80/72/26
f 80/72/26 96/73/26 93/75/26
f 80/72/26 93/75/26 82/74/26
f 82/74/26 93/75/26 91/77/26
f 82/74/26 91/77/26 83/76/26
f 83/76/26 91/77/26 89/79/26
f 83/76/26 89/79/26 85/78/26
f 85/78/26 89/79/26 87/80/26

g cylinder

v 0.5866026 1.2 0.95
v 0.5866026 0 0.95
v 0.5965926 1.2 0.9741181
v 0.5965926 0 0.9741181
v 0.6 1.2 1
v 0.6 0 1
v 0.5965926 1.2 1.025882
v 0.5965926 0 1.025882
v 0.5866026 1.2 1.05
v 0.5866026 0 1.05
v 0.5707107 0 0.9292893
v 0.5707107 1.2 0.9292893
v 0.5707107 1.2 1.070711
v 0.5707107 0 1.070711
v 0.55 0 1.086603
v 0.55 1.2 1.086603
v 0.5258819 0 1.096593
v 0.5258819 1.2 1.096593
v 0.5 0 1.1
v 0.5 1.2 1.1
v 0.4741181 0 1.096593
v 0.4741181 1.2 1.096593
v 0.55 1.2 0.9133974
v 0.55 0 0.9133974
v 0.5258819 1.2 0.9034074
v 0.5258819 0 0.9034074
v 0.5 1.2 0.9
v 0.5 0 0.9
v 0.4741181 1.2 0.9034074
v 0.4741181 0 0.9034074
v 0.45 0 1.086603
v 0.45 1.2 1.086603
v 0.4292893 0 1.070711
v 0.4292893 1.2 1.070711
v 0.4133975 1.2 1.05
v 0.4133975 0 1.05
v 0.4034074 1.2 1.025882
v 0.4034074 0 1.025882
v 0.4 1.2 1
v 0.4 0 1
v 0.4034074 1.2 0.9741181
v 0.4034074 0 0.9741181
v 0.4133975 1.2 0.95
v 0.4133975 0 0.95
v 0.4292893 1.2 0.9292893
v 0.4292893 0 0.9292893
v 0.45 0 0.9133974
v 0.45 1.2 0.9133974



usemtl custom1(Clone)

f 99/3/2 98/2/1 97/1/1
f 98/2/1 99/3/2 100/4/2
f 101/5/3 100/4/2 99/3/2
f 100/4/2 101/5/3 102/6/3
f 103/7/4 102/6/3 101/5/3
f 102/6/3 103/7/4 104/8/4
f 105/9/5 104/8/4 103/7/4
f 104/8/4 105/9/5 106/10/5
f 107/11/6 97/1/1 98/2/1
f 97/1/1 107/11/6 108/12/6
f 109/13/7 106/10/5 105/9/5
f 106/10/5 109/13/7 110/14/7
f 109/17/7 111/16/8 110/15/7
f 111/16/8 109/17/7 112/18/8
f 112/18/8 113/19/9 111/16/8
f 113/19/9 112/18/8 114/20/9
f 114/20/9 115/21/10 113/19/9
f 115/21/10 114/20/9 116/22/10
f 116/22/10 117/23/11 115/21/10
f 117/23/11 116/22/10 118/24/11
f 107/27/6 119/26/12 108/25/6
f 119/26/12 107/27/6 120/28/12
f 120/28/12 121/29/13 119/26/12
f 121/29/13 120/28/12 122/30/13
f 122/30/13 123/31/14 121/29/13
f 123/31/14 122/30/13 124/32/14
f 124/32/14 125/33/15 123/31/14
f 125/33/15 124/32/14 126/34/15
f 118/24/11 127/35/16 117/23/11
f 127/35/16 118/24/11 128/36/16
f 128/36/16 129/37/17 127/35/16
f 129/37/17 128/36/16 130/38/17
f 131/41/18 129/40/17 130/39/17
f 129/40/17 131/41/18 132/42/18
f 133/43/19 132/42/18 131/41/18
f 132/42/18 133/43/19 134/44/19
f 135/45/20 134/44/19 133/43/19
f 134/44/19 135/45/20 136/46/20
f 137/47/21 136/46/20 135/45/20
f 136/46/20 137/47/21 138/48/21
f 139/49/22 138/48/21 137/47/21
f 138/48/21 139/49/22 140/50/22
f 141/51/23 140/50/22 139/49/22
f 140/50/22 141/51/23 142/52/23
f 141/55/23 143/54/24 142/53/23
f 143/54/24 141/55/23 144/56/24
f 144/56/24 126/34/15 143/54/24
f 126/34/15 144/56/24 125/33/15
f 104/59/25 100/58/25 102/57/25
f 100/58/25 104/59/25 98/60/25
f 98/60/25 104/59/25 106/61/25
f 98/60/25 106/61/25 107/62/25
f 107/62/25 106/61/25 110/63/25
f 107/62/25 110/63/25 120/64/25
f 120/64/25 110/63/25 111/65/25
f 120/64/25 111/65/25 122/66/25
f 122/66/25 111/65/25 113/67/25
f 122/66/25 113/67/25 115/68/25
f 122/66/25 115/68/25 124/69/25
f 124/69/25 115/68/25 117/70/25
f 124/69/25 117/70/25 126/71/25
f 126/71/25 117/70/25 143/72/25
f 143/72/25 117/70/25 127/73/25
f 143/72/25 127/73/25 142/74/25
f 142/74/25 127/73/25 129/75/25
f 142/74/25 129/75/25 140/76/25
f 140/76/25 129/75/25 132/77/25
f 140/76/25 132/77/25 138/78/25
f 138/78/25 132/77/25 134/79/25
f 138/78/25 134/79/25 136/80/25
f 99/83/26 103/82/26 101/81/26
f 103/82/26 99/83/26 97/84/26
f 103/82/26 97/84/26 105/85/26
f 105/85/26 97/84/26 108/86/26
f 105/85/26 108/86/26 109/87/26
f 109/87/26 108/86/26 119/88/26
f 109/87/26 119/88/26 112/89/26
f 112/89/26 119/88/26 121/90/26
f 112/89/26 121/90/26 114/91/26
f 114/91/26 121/90/26 123/92/26
f 114/91/26 123/92/26 116/93/26
f 116/93/26 123/92/26 125/94/26
f 116/93/26 125/94/26 118/95/26
f 118/95/26 125/94/26 144/96/26
f 118/95/26 144/96/26 128/97/26
f 128/97/26 144/96/26 141/98/26
f 128/97/26 141/98/26 130/99/26
f 130/99/26 141/98/26 139/100/26
f 130/99/26 139/100/26 131/101/26
f 131/101/26 139/100/26 137/102/26
f 131/101/26 137/102/26 133/103/26
f 133/103/26 137/102/26 135/104/26

g cylinder

v 0.5866026 1.2 -1.05
v 0.5866026 0 -1.05
v 0.5965926 1.2 -1.025882
v 0.5965926 0 -1.025882
v 0.6 1.2 -1
v 0.6 0 -1
v 0.5965926 1.2 -0.9741181
v 0.5965926 0 -0.9741181
v 0.5866026 1.2 -0.95
v 0.5866026 0 -0.95
v 0.5707107 0 -1.070711
v 0.5707107 1.2 -1.070711
v 0.5707107 1.2 -0.9292893
v 0.5707107 0 -0.9292893
v 0.55 0 -0.9133974
v 0.55 1.2 -0.9133974
v 0.5258819 0 -0.9034074
v 0.5258819 1.2 -0.9034074
v 0.5 0 -0.9
v 0.5 1.2 -0.9
v 0.4741181 0 -0.9034074
v 0.4741181 1.2 -0.9034074
v 0.55 1.2 -1.086603
v 0.55 0 -1.086603
v 0.5258819 1.2 -1.096593
v 0.5258819 0 -1.096593
v 0.5 1.2 -1.1
v 0.5 0 -1.1
v 0.4741181 1.2 -1.096593
v 0.4741181 0 -1.096593
v 0.45 0 -0.9133974
v 0.45 1.2 -0.9133974
v 0.4292893 0 -0.9292893
v 0.4292893 1.2 -0.9292893
v 0.4133975 1.2 -0.95
v 0.4133975 0 -0.95
v 0.4034074 1.2 -0.9741181
v 0.4034074 0 -0.9741181
v 0.4 1.2 -1
v 0.4 0 -1
v 0.4034074 1.2 -1.025882
v 0.4034074 0 -1.025882
v 0.4133975 1.2 -1.05
v 0.4133975 0 -1.05
v 0.4292893 1.2 -1.070711
v 0.4292893 0 -1.070711
v 0.45 0 -1.086603
v 0.45 1.2 -1.086603



usemtl custom1(Clone)

f 147/43/2 146/42/1 145/41/1
f 146/42/1 147/43/2 148/44/2
f 149/45/3 148/44/2 147/43/2
f 148/44/2 149/45/3 150/46/3
f 151/47/4 150/46/3 149/45/3
f 150/46/3 151/47/4 152/48/4
f 153/49/5 152/48/4 151/47/4
f 152/48/4 153/49/5 154/50/5
f 155/40/6 145/41/1 146/42/1
f 145/41/1 155/40/6 156/39/6
f 157/51/7 154/50/5 153/49/5
f 154/50/5 157/51/7 158/52/7
f 157/17/7 159/16/8 158/15/7
f 159/16/8 157/17/7 160/18/8
f 160/18/8 161/19/9 159/16/8
f 161/19/9 160/18/8 162/20/9
f 162/20/9 163/21/10 161/19/9
f 163/21/10 162/20/9 164/22/10
f 164/22/10 165/23/11 163/21/10
f 165/23/11 164/22/10 166/24/11
f 155/27/6 167/26/12 156/25/6
f 167/26/12 155/27/6 168/28/12
f 168/28/12 169/29/13 167/26/12
f 169/29/13 168/28/12 170/30/13
f 170/30/13 171/31/14 169/29/13
f 171/31/14 170/30/13 172/32/14
f 172/32/14 173/33/15 171/31/14
f 173/33/15 172/32/14 174/34/15
f 166/24/11 175/35/16 165/23/11
f 175/35/16 166/24/11 176/36/16
f 176/36/16 177/37/17 175/35/16
f 177/37/17 176/36/16 178/38/17
f 179/1/18 177/11/17 178/12/17
f 177/11/17 179/1/18 180/2/18
f 181/3/19 180/2/18 179/1/18
f 180/2/18 181/3/19 182/4/19
f 183/5/20 182/4/19 181/3/19
f 182/4/19 183/5/20 184/6/20
f 185/7/21 184/6/20 183/5/20
f 184/6/20 185/7/21 186/8/21
f 187/9/22 186/8/21 185/7/21
f 186/8/21 187/9/22 188/10/22
f 189/13/23 188/10/22 187/9/22
f 188/10/22 189/13/23 190/14/23
f 189/55/23 191/54/24 190/53/23
f 191/54/24 189/55/23 192/56/24
f 192/56/24 174/34/15 191/54/24
f 174/34/15 192/56/24 173/33/15
f 152/83/25 148/82/25 150/81/25
f 148/82/25 152/83/25 146/85/25
f 146/85/25 152/83/25 154/84/25
f 146/85/25 154/84/25 155/87/25
f 155/87/25 154/84/25 158/86/25
f 155/87/25 158/86/25 168/89/25
f 168/89/25 158/86/25 159/88/25
f 168/89/25 159/88/25 170/91/25
f 170/91/25 159/88/25 161/90/25
f 170/91/25 161/90/25 163/92/25
f 170/91/25 163/92/25 172/93/25
f 172/93/25 163/92/25 165/94/25
f 172/93/25 165/94/25 174/95/25
f 174/95/25 165/94/25 191/97/25
f 191/97/25 165/94/25 175/96/25
f 191/97/25 175/96/25 190/99/25
f 190/99/25 175/96/25 177/98/25
f 190/99/25 177/98/25 188/101/25
f 188/101/25 177/98/25 180/100/25
f 188/101/25 180/100/25 186/103/25
f 186/103/25 180/100/25 182/102/25
f 186/103/25 182/102/25 184/104/25
f 147/59/26 151/58/26 149/57/26
f 151/58/26 147/59/26 145/61/26
f 151/58/26 145/61/26 153/60/26
f 153/60/26 145/61/26 156/63/26
f 153/60/26 156/63/26 157/62/26
f 157/62/26 156/63/26 167/65/26
f 157/62/26 167/65/26 160/64/26
f 160/64/26 167/65/26 169/67/26
f 160/64/26 169/67/26 162/66/26
f 162/66/26 169/67/26 171/68/26
f 162/66/26 171/68/26 164/69/26
f 164/69/26 171/68/26 173/70/26
f 164/69/26 173/70/26 166/71/26
f 166/71/26 173/70/26 192/73/26
f 166/71/26 192/73/26 176/72/26
f 176/72/26 192/73/26 189/75/26
f 176/72/26 189/75/26 178/74/26
f 178/74/26 189/75/26 187/77/26
f 178/74/26 187/77/26 179/76/26
f 179/76/26 187/77/26 185/79/26
f 179/76/26 185/79/26 181/78/26
f 181/78/26 185/79/26 183/80/26

g block_bevel

v 0.5625 1.2125 1.25
v -0.5625 1.2125 1.25
v 0.5625 1.2875 1.25
v -0.5625 1.2875 1.25
v 0.75 1.2875 -0.9375
v 0.75 1.2125 -0.9375
v 0.75 1.2875 0.9375
v 0.75 1.2125 0.9375
v 0.5625 1.3 -0.9375
v 0.5625 1.3 0.9375
v -0.5625 1.3 -0.9375
v -0.5625 1.3 0.9375
v -0.5625 1.2125 -1.25
v 0.5625 1.2125 -1.25
v -0.5625 1.2875 -1.25
v 0.5625 1.2875 -1.25
v 0.5625 1.2 0.9375
v 0.5625 1.2 -0.9375
v -0.5625 1.2 0.9375
v -0.5625 1.2 -0.9375
v -0.75 1.2125 -0.9375
v -0.75 1.2875 -0.9375
v -0.75 1.2125 0.9375
v -0.75 1.2875 0.9375

vn 0 0 2.5
vn 1.5 0 0
vn 0 0.1 0
vn 0 0 -2.5
vn 0 -0.1 0
vn -1.5 0 0
vn 0.8660254 0.05773503 -1.443376
vn 1.06066 0 -1.767767
vn 0 -0.07071068 -1.767767
vn 0.8660254 -0.05773503 -1.443376
vn 1.06066 -0.07071068 0
vn 1.06066 0.07071068 0
vn 0.8660254 0.05773503 1.443376
vn 1.06066 0 1.767767
vn 0.8660254 -0.05773503 1.443376
vn 0 0.07071068 1.767767
vn -0.8660254 0.05773503 1.443376
vn -1.06066 -0.07071068 0
vn 0 -0.07071068 1.767767
vn -1.06066 0 1.767767
vn -0.8660254 -0.05773503 1.443376
vn -0.8660254 -0.05773503 -1.443376
vn -1.06066 0 -1.767767
vn -1.06066 0.07071068 0
vn 0 0.07071068 -1.767767
vn -0.8660254 0.05773503 -1.443376

vt 0.5625 1.2125
vt -0.5625 1.2125
vt 0.5625 1.2875
vt -0.5625 1.2875
vt 0.9375 1.2875
vt 0.9375 1.2125
vt -0.9375 1.2875
vt -0.9375 1.2125
vt -0.5625 -0.9375
vt -0.5625 0.9375
vt 0.5625 -0.9375
vt 0.5625 0.9375
vt -0.5625 -1.25
vt -0.75 -0.9375
vt 1.25 1.2125
vt 1.25 1.2875
vt -0.5625 1.25
vt 0.5625 1.25
vt -0.75 0.9375
vt -1.25 1.2125
vt -1.25 1.2875
vt 0.75 0.9375
vt 0.75 -0.9375
vt 0.5625 -1.25

usemtl _defaultMat(Clone)

f 195/107/27 194/106/27 193/105/27
f 194/106/27 195/107/27 196/108/27
f 199/111/28 198/110/28 197/109/28
f 198/110/28 199/111/28 200/112/28
f 203/115/29 202/114/29 201/113/29
f 202/114/29 203/115/29 204/116/29
f 207/107/30 206/106/30 205/105/30
f 206/106/30 207/107/30 208/108/30
f 211/115/31 210/114/31 209/113/31
f 210/114/31 211/115/31 212/116/31
f 215/110/32 214/111/32 213/112/32
f 214/111/32 215/110/32 216/109/32
f 201/113/33 197/118/33 208/117/33
f 208/120/34 198/110/34 206/119/34
f 198/110/34 208/120/34 197/109/34
f 212/116/35 206/121/35 210/114/35
f 206/121/35 212/116/35 205/122/35
f 206/121/36 198/123/36 210/114/36
f 209/113/37 198/123/37 200/118/37
f 198/123/37 209/113/37 210/114/37
f 201/113/38 199/123/38 197/118/38
f 199/123/38 201/113/38 202/114/38
f 202/114/39 195/121/39 199/123/39
f 199/111/40 193/124/40 200/112/40
f 193/124/40 199/111/40 195/125/40
f 193/117/41 209/113/41 200/118/41
f 202/114/42 196/122/42 195/121/42
f 196/122/42 202/114/42 204/116/42
f 196/122/43 204/116/43 216/126/43
f 211/115/44 213/126/44 212/116/44
f 213/126/44 211/115/44 215/127/44
f 193/117/45 211/115/45 209/113/45
f 211/115/45 193/117/45 194/128/45
f 194/119/46 216/109/46 215/110/46
f 216/109/46 194/119/46 196/120/46
f 194/128/47 215/127/47 211/115/47
f 213/126/48 205/122/48 212/116/48
f 213/112/49 207/125/49 205/124/49
f 207/125/49 213/112/49 214/111/49
f 216/126/50 203/115/50 214/127/50
f 203/115/50 216/126/50 204/116/50
f 207/128/51 201/113/51 208/117/51
f 201/113/51 207/128/51 203/115/51
f 203/115/52 207/128/52 214/127/52

