# Created by Kenney (www.kenney.nl)

mtllib 3DM_VendingMachine_Drawer.mtl

g block

v 0.5 0 1.3
v 0.5 0 -0.3
v -0.5 0 1.3
v -0.5 0 -0.3
v -0.5 0.2 -0.3
v -0.5 0.2 1.3
v 0.5 0.2 -0.3
v 0.5 0.2 1.3

vn 0 -0.2 0
vn -1 0 0
vn 0 0 -1.6
vn 0 0 1.6
vn 1 0 0
vn 0 0.2 0

vt -0.5 -1.3
vt -0.5 0.3
vt 0.5 -1.3
vt 0.5 0.3
vt -0.3 0
vt -0.3 0.2
vt 1.3 0
vt 1.3 0.2
vt 0.5 0
vt -0.5 0
vt 0.5 0.2
vt -0.5 0.2
vt 0.3 0.2
vt 0.3 0
vt -1.3 0.2
vt -1.3 0
vt -0.5 -0.3
vt -0.5 1.3
vt 0.5 -0.3
vt 0.5 1.3

usemtl _defaultMat(Clone)

f 3/3/1 2/2/1 1/1/1
f 2/2/1 3/3/1 4/4/1
f 3/7/2 5/6/2 4/5/2
f 5/6/2 3/7/2 6/8/2
f 5/11/3 2/10/3 4/9/3
f 2/10/3 5/11/3 7/12/3
f 8/11/4 3/10/4 1/9/4
f 3/10/4 8/11/4 6/12/4
f 8/15/5 2/14/5 7/13/5
f 2/14/5 8/15/5 1/16/5
f 5/19/6 8/18/6 7/17/6
f 8/18/6 5/19/6 6/20/6

g wedge_cornerInner

v -0.5 1.2 -0.3
v -0.5 1.3 -0.3
v -0.4 1.3 -0.2
v -0.4 1.3 -0.3
v -0.4 1.2 -0.2
v -0.5 1.2 -0.2
v -0.4 1.2 -0.3

vn -0.07071068 0 0.07071068
vn 0 0.1 0
vn 0 0 0.1
vn -0.07071068 0.07071068 0
vn 0 -0.1 0
vn 0.1 0 0
vn 0 0 -0.1

vt -0.3 1.2
vt -0.3 1.3
vt -0.2 1.3
vt 0.4 -0.3
vt 0.4 -0.2
vt -0.4 1.2
vt -0.5 1.2
vt -0.4 1.3
vt 0.5 -0.2
vt 0.4 0.2
vt 0.4 0.3
vt 0.3 1.3
vt 0.3 1.2
vt 0.2 1.3
vt 0.2 1.2
vt 0.5 1.2
vt 0.4 1.2
vt 0.4 1.3

usemtl _defaultMat(Clone)

f 11/23/7 10/22/7 9/21/7
f 10/19/8 11/25/8 12/24/8
f 11/28/9 14/27/9 13/26/9
f 11/25/10 9/19/10 14/29/10
f 14/11/11 15/31/11 13/30/11
f 15/31/11 14/11/11 9/4/11
f 11/34/12 15/33/12 12/32/12
f 15/33/12 11/34/12 13/35/12
f 10/20/13 15/37/13 9/36/13
f 15/37/13 10/20/13 12/38/13

g block

v 0.5 0 -0.5
v -0.5 0 -0.5
v -0.5 1 -0.5
v -0.5 1 -0.3
v 0.5 1 -0.5
v 0.5 1 -0.3

vn 0 -1 0
vn 0 0 -0.2
vn 0 0 0.2
vn 0 1 0

vt -0.5 0.5
vt 0.5 0.5
vt -0.5 1
vt -0.3 1
vt 0.5 1
vt 0.3 1
vt -0.5 -0.5
vt 0.5 -0.5

usemtl _defaultMat(Clone)

f 4/4/14 16/39/14 2/2/14
f 16/39/14 4/4/14 17/40/14
f 4/5/2 18/41/2 17/10/2
f 18/41/2 4/5/2 19/42/2
f 18/43/15 16/10/15 17/9/15
f 16/10/15 18/43/15 20/41/15
f 21/43/16 4/10/16 2/9/16
f 4/10/16 21/43/16 19/41/16
f 21/44/5 16/9/5 20/43/5
f 16/9/5 21/44/5 2/14/5
f 18/46/17 21/17/17 20/45/17
f 21/17/17 18/46/17 19/19/17

g block

v 0.5 0 1.5
v -0.5 0 1.5
v -0.5 1 1.3
v -0.5 1 1.5
v 0.5 1 1.3
v 0.5 1 1.5


vt -0.5 -1.5
vt 0.5 -1.5
vt 1.3 1
vt 1.5 0
vt 1.5 1
vt -1.3 1
vt -1.5 1
vt -1.5 0
vt -0.5 1.5
vt 0.5 1.5

usemtl _defaultMat(Clone)

f 23/48/14 1/1/14 22/47/14
f 1/1/14 23/48/14 3/3/14
f 23/50/2 24/49/2 3/7/2
f 24/49/2 23/50/2 25/51/2
f 24/43/15 1/10/15 3/9/15
f 1/10/15 24/43/15 26/41/15
f 27/43/16 23/10/16 22/9/16
f 23/10/16 27/43/16 25/41/16
f 27/53/5 1/16/5 26/52/5
f 1/16/5 27/53/5 22/54/5
f 24/20/17 27/55/17 26/18/17
f 27/55/17 24/20/17 25/56/17

g block

v -0.396 1 1.5
v -0.396 1 -0.5
v -0.396 2.5 -0.5
v -0.396 2.5 1.5
v 0.5 2.5 -0.5
v 0.5 2.5 1.5

vn 0 -1.5 0
vn -0.896 0 0
vn 0 0 -2
vn 0 0 2
vn 0.896 0 0
vn 0 1.5 0

vt 0.396 -1.5
vt 0.396 0.5
vt -0.5 2.5
vt 1.5 2.5
vt 0.396 1
vt 0.396 2.5
vt -0.396 1
vt 0.5 2.5
vt -0.396 2.5
vt -1.5 2.5
vt 0.396 -0.5
vt 0.396 1.5

usemtl _defaultMat(Clone)

f 28/57/18 20/39/18 27/47/18
f 20/39/18 28/57/18 29/58/18
f 28/51/19 30/59/19 29/41/19
f 30/59/19 28/51/19 31/60/19
f 30/62/20 20/41/20 29/61/20
f 20/41/20 30/62/20 32/59/20
f 33/64/21 28/63/21 27/43/21
f 28/63/21 33/64/21 31/65/21
f 33/66/22 20/43/22 32/64/22
f 20/43/22 33/66/22 27/53/22
f 30/67/23 33/55/23 32/45/23
f 33/55/23 30/67/23 31/68/23

g block

v -0.3 2.3 1.5
v -0.3 2.3 -0.5
v -0.5 2.3 1.5
v -0.5 2.3 -0.5
v -0.5 2.5 -0.5
v -0.5 2.5 1.5
v -0.3 2.5 -0.5
v -0.3 2.5 1.5

vn -0.2 0 0
vn 0.2 0 0

vt 0.3 -1.5
vt 0.3 0.5
vt -0.5 2.3
vt 1.5 2.3
vt 0.5 2.3
vt 0.3 2.3
vt 0.3 2.5
vt -0.3 2.3
vt -0.3 2.5
vt -1.5 2.3
vt 0.3 -0.5
vt 0.3 1.5

usemtl _defaultMat(Clone)

f 36/48/1 35/70/1 34/69/1
f 35/70/1 36/48/1 37/40/1
f 36/72/24 38/59/24 37/71/24
f 38/59/24 36/72/24 39/60/24
f 38/64/20 35/74/20 37/73/20
f 35/74/20 38/64/20 40/75/20
f 41/77/21 36/71/21 34/76/21
f 36/71/21 41/77/21 39/59/21
f 41/66/25 35/73/25 40/64/25
f 35/73/25 41/66/25 34/78/25
f 38/46/6 41/80/6 40/79/6
f 41/80/6 38/46/6 39/56/6

g block

v -0.3 1.2 1.5
v -0.3 1.2 1.3
v -0.5 1.2 1.5
v -0.5 1.2 1.3
v -0.5 2.3016 1.3
v -0.5 2.3016 1.5
v -0.3 2.3016 1.3
v -0.3 2.3016 1.5

vn 0 -1.1016 0
vn 0 1.1016 0

vt 0.3 -1.3
vt 1.3 1.2
vt 1.3 2.3016
vt 1.5 1.2
vt 1.5 2.3016
vt 0.5 2.3016
vt 0.3 2.3016
vt -0.3 2.3016
vt -0.5 2.3016
vt -1.3 2.3016
vt -1.3 1.2
vt -1.5 2.3016
vt -1.5 1.2

usemtl _defaultMat(Clone)

f 44/48/26 43/81/26 42/69/26
f 43/81/26 44/48/26 45/3/26
f 44/84/24 46/83/24 45/82/24
f 46/83/24 44/84/24 47/85/24
f 46/86/15 43/33/15 45/36/15
f 43/33/15 46/86/15 48/87/15
f 49/88/16 44/27/16 42/21/16
f 44/27/16 49/88/16 47/89/16
f 49/92/25 43/91/25 48/90/25
f 43/91/25 49/92/25 42/93/25
f 46/20/27 49/80/27 48/32/27
f 49/80/27 46/20/27 47/56/27

g block

v -0.3 1.2 -0.3
v -0.3 1.2 -0.5
v -0.5 1.2 -0.3
v -0.5 1.2 -0.5
v -0.5 2.3016 -0.5
v -0.5 2.3016 -0.3
v -0.3 2.3016 -0.5
v -0.3 2.3016 -0.3


vt 0.3 0.3
vt 0.3 0.5
vt 0.5 0.3
vt 0.5 0.5
vt -0.5 1.2
vt -0.5 2.3016
vt -0.3 1.2
vt -0.3 2.3016
vt 0.5 2.3016
vt 0.5 1.2
vt 0.3 2.3016
vt 0.3 1.2
vt 0.3 -0.5
vt 0.3 -0.3
vt 0.5 -0.5
vt 0.5 -0.3

usemtl _defaultMat(Clone)

f 52/96/26 51/95/26 50/94/26
f 51/95/26 52/96/26 53/97/26
f 52/100/24 54/99/24 53/98/24
f 54/99/24 52/100/24 55/101/24
f 54/86/15 51/33/15 53/36/15
f 51/33/15 54/86/15 56/87/15
f 57/88/16 52/27/16 50/21/16
f 52/27/16 57/88/16 55/89/16
f 57/104/25 51/103/25 56/102/25
f 51/103/25 57/104/25 50/105/25
f 54/108/27 57/107/27 56/106/27
f 57/107/27 54/108/27 55/109/27

g wedge

v -0.4 1.3 -0.3
v -0.5 2.22 -0.3
v -0.4 2.22 -0.3
v -0.4 2.22 -0.2
v -0.4 1.3 -0.2

vn 0 -0.92 0
vn 0 0.92 0

vt 0.4 1.3
vt 0.5 2.22
vt 0.4 2.22
vt 0.3 2.22
vt 0.2 2.22
vt 0.2 1.3
vt 0.4 0.2
vt 0.4 0.3
vt 0.4 -0.3
vt 0.4 -0.2
vt -0.5 2.22
vt -0.4 1.3
vt -0.4 2.22

usemtl _defaultMat(Clone)

f 59/111/13 58/110/13 10/20/13
f 58/110/13 59/111/13 60/112/13
f 61/114/12 58/32/12 60/113/12
f 58/32/12 61/114/12 62/115/12
f 10/4/28 58/117/28 62/116/28
f 59/19/29 61/119/29 60/118/29
f 62/121/7 59/120/7 10/18/7
f 59/120/7 62/121/7 61/122/7

g wedge_cornerInner

v -0.5000009 1.2 1.300001
v -0.5000008 1.2 1.199999
v -0.4 1.3 1.199999
v -0.4 1.2 1.199999
v -0.4 1.3 1.300001
v -0.5000008 1.3 1.300001
v -0.4 1.2 1.300001

vn -0.07071127 0.07071126 -6.181776E-09
vn 8.742389E-09 0 -0.1000013
vn 1.490116E-08 0.1000009 0
vn -0.07071127 -7.450581E-09 -0.07071158
vn -8.742389E-09 0 0.1000013
vn 0.1000009 1.490116E-08 8.742352E-09
vn -1.490116E-08 -0.1000009 0

vt 1.300001 1.2
vt 1.199999 1.2
vt 1.199999 1.3
vt 0.4 1.2
vt 0.4 1.3
vt 0.5000008 1.2
vt 0.4 1.300001
vt 0.5000008 1.300001
vt 0.4 1.199999
vt 1.300001 1.3
vt -0.4 1.3
vt -0.4 1.2
vt -0.5000008 1.3
vt -0.5000009 1.2
vt -1.199999 1.2
vt -1.300001 1.2
vt -1.199999 1.3
vt -1.300001 1.3
vt 0.5000009 -1.300001
vt 0.4 -1.300001
vt 0.5000008 -1.199999
vt 0.4 -1.199999

usemtl _defaultMat(Clone)

f 65/125/30 64/124/30 63/123/30
f 64/128/31 65/127/31 66/126/31
f 65/131/32 68/130/32 67/129/32
f 65/125/33 63/123/33 68/132/33
f 68/135/34 69/134/34 67/133/34
f 69/134/34 68/135/34 63/136/34
f 65/139/35 69/138/35 66/137/35
f 69/138/35 65/139/35 67/140/35
f 64/143/36 69/142/36 63/141/36
f 69/142/36 64/143/36 66/144/36

g wedge_cornerInner

v -0.5000007 2.3 -0.3
v -0.5000007 2.3 -0.2
v -0.4 2.2 -0.2
v -0.4 2.3 -0.2
v -0.4 2.2 -0.3
v -0.5000007 2.2 -0.3
v -0.4 2.3 -0.3

vn -0.07071118 -0.0707112 0
vn 1.490116E-08 -0.1000007 0
vn -0.07071119 -7.450581E-09 0.07071068
vn 0.1000007 1.490116E-08 0
vn -1.490116E-08 0.1000007 0

vt -0.3 2.3
vt -0.2 2.3
vt -0.2 2.2
vt -0.4 2.3
vt -0.4 2.2
vt -0.5000007 2.3
vt 0.5000007 0.3
vt -0.5000007 2.2
vt 0.4 2.2
vt 0.4 2.3
vt 0.5000007 2.2
vt 0.5000007 2.3
vt 0.2 2.3
vt 0.3 2.3
vt 0.2 2.2
vt 0.3 2.2
vt 0.5000007 -0.3
vt 0.5000007 -0.2

usemtl _defaultMat(Clone)

f 72/147/37 71/146/37 70/145/37
f 71/150/9 72/149/9 73/148/9
f 72/30/38 75/151/38 74/31/38
f 72/149/39 70/150/39 75/152/39
f 75/155/13 76/154/13 74/153/13
f 76/154/13 75/155/13 70/156/13
f 72/159/40 76/158/40 73/157/40
f 76/158/40 72/159/40 74/160/40
f 71/162/41 76/24/41 70/161/41
f 76/24/41 71/162/41 73/25/41

g wedge

v -0.5000004 1.2 1.200002
v -0.3999997 1.2 1.200002
v -0.5000002 1.2 -0.2000024
v -0.3999996 1.2 -0.2000024
v -0.3999996 1.3 -0.2000024
v -0.3999997 1.3 1.200002

vn 0.1000006 0 1.490116E-08
vn -1.192093E-07 0 1.400005
vn 1.192093E-07 0 -1.400005
vn -0.07071111 0.07071068 -7.450581E-09

vt 0.5000004 -1.200002
vt 0.3999998 -1.200002
vt 0.5000002 0.2000024
vt 0.3999996 0.2000024
vt 0.2000024 1.2
vt -1.200002 1.2
vt 0.2000024 1.3
vt -1.200002 1.3
vt -0.3999998 1.3
vt -0.3999998 1.2
vt -0.5000004 1.2
vt 0.3999996 1.2
vt 0.3999996 1.3
vt 0.5000002 1.2
vt 0.5000004 1.200002
vt 0.5000002 -0.2000024
vt 0.3999998 1.200002
vt 0.3999996 -0.2000024

usemtl _defaultMat(Clone)

f 79/165/11 78/164/11 77/163/11
f 78/164/11 79/165/11 80/166/11
f 81/169/42 78/168/42 80/167/42
f 78/168/42 81/169/42 82/170/42
f 77/173/43 78/172/43 82/171/43
f 79/176/44 81/175/44 80/174/44
f 82/179/45 79/178/45 77/177/45
f 79/178/45 82/179/45 81/180/45

g wedge

v -0.5000003 2.3 -0.200002
v -0.3999998 2.3 -0.200002
v -0.5000002 2.3 1.200002
v -0.3999997 2.3 1.200002
v -0.3999997 2.199999 1.200002
v -0.3999998 2.199999 -0.200002

vn 0 0.1000007 8.742342E-09
vn 0.1000005 0 1.490116E-08
vn -1.192093E-07 1.223922E-07 -1.400004
vn 1.192093E-07 -1.223922E-07 1.400004
vn -0.07071102 -0.0707112 -1.490116E-08

vt 0.5000003 -0.200002
vt 0.3999998 -0.200002
vt 0.5000002 1.200002
vt 0.3999996 1.200002
vt -1.200002 2.3
vt 0.200002 2.3
vt -1.200002 2.199999
vt 0.200002 2.199999
vt 0.3999998 2.199999
vt 0.3999998 2.3
vt 0.5000003 2.3
vt -0.3999996 2.3
vt -0.3999996 2.199999
vt -0.5000002 2.3
vt -0.200002 2.3
vt 1.200002 2.3
vt -0.200002 2.199999
vt 1.200002 2.199999

usemtl _defaultMat(Clone)

f 85/183/46 84/182/46 83/181/46
f 84/182/46 85/183/46 86/184/46
f 87/187/47 84/186/47 86/185/47
f 84/186/47 87/187/47 88/188/47
f 83/191/48 84/190/48 88/189/48
f 85/194/49 87/193/49 86/192/49
f 88/197/50 85/196/50 83/195/50
f 85/196/50 88/197/50 87/198/50

g wedge

v -0.5 2.22 1.3
v -0.4 2.22 1.3
v -0.5 1.3 1.3
v -0.4 1.3 1.3
v -0.4 1.3 1.2
v -0.4 2.22 1.2

vn -0.07071068 0 -0.07071068

vt -1.3 1.3
vt -1.3 2.22
vt -1.2 1.3
vt -1.2 2.22
vt 0.4 1.2
vt 0.4 -1.3
vt 0.4 -1.2

usemtl _defaultMat(Clone)

f 91/18/9 90/122/9 89/120/9
f 90/122/9 91/18/9 92/121/9
f 93/201/12 90/200/12 92/199/12
f 90/200/12 93/201/12 94/202/12
f 89/20/29 90/110/29 94/203/29
f 91/3/28 93/205/28 92/204/28
f 94/112/51 91/20/51 89/111/51
f 91/20/51 94/112/51 93/110/51

g wedge_cornerInner

v -0.5 2.3 1.3
v -0.5 2.2 1.3
v -0.4 2.2 1.2
v -0.4 2.2 1.3
v -0.4 2.3 1.2
v -0.5 2.3 1.2
v -0.4 2.3 1.3

vn -0.07071068 -0.07071068 0

vt 0.5 2.2
vt 0.4 2.2
vt 0.4 -1.3
vt 0.4 -1.2
vt 0.4 2.3
vt 0.5 -1.2
vt -1.3 2.2
vt -1.3 2.3
vt -1.2 2.2
vt -1.2 2.3
vt -0.4 2.3
vt -0.5 2.2
vt -0.4 2.2

usemtl _defaultMat(Clone)

f 97/207/51 96/206/51 95/73/51
f 96/3/11 97/209/11 98/208/11
f 97/207/13 100/73/13 99/210/13
f 97/209/52 95/3/52 100/211/52
f 100/36/8 101/38/8 99/37/8
f 101/38/8 100/36/8 95/20/8
f 97/214/12 101/213/12 98/212/12
f 101/213/12 97/214/12 99/215/12
f 96/217/9 101/216/9 95/71/9
f 101/216/9 96/217/9 98/218/9

g block

v 0.5 0.2 1.3
v 0.5 0.2 -0.3
v 0.4 0.2 1.3
v 0.4 0.2 -0.3
v 0.4 1 -0.3
v 0.4 1 1.3

vn 0 -0.8 0
vn -0.1 0 0
vn 0 0.8 0

vt -0.4 -1.3
vt -0.4 0.3
vt -0.3 0.2
vt 1.3 0.2
vt -0.4 0.2
vt -0.5 0.2
vt -0.4 1
vt 0.5 0.2
vt 0.4 0.2
vt 0.4 1
vt 0.3 0.2
vt -1.3 0.2
vt -0.4 -0.3

usemtl _defaultMat(Clone)

f 104/219/53 103/2/53 102/1/53
f 103/2/53 104/219/53 105/220/53
f 104/222/54 106/42/54 105/221/54
f 106/42/54 104/222/54 107/49/54
f 106/225/3 103/224/3 105/223/3
f 103/224/3 106/225/3 21/41/3
f 26/43/4 104/227/4 102/226/4
f 104/227/4 26/43/4 107/228/4
f 26/52/12 103/229/12 21/44/12
f 103/229/12 26/52/12 102/230/12
f 106/231/55 26/18/55 21/17/55
f 26/18/55 106/231/55 107/121/55

g block

v 0.4025 0.2 1.3
v 0.4025 0.2 -0.3
v -0.5 0.3 -0.3
v -0.5 0.3 1.3
v 0.4025 0.3 -0.3
v 0.4025 0.3 1.3

vn -0.9025 0 0
vn 0.9025 0 0

vt -0.4012501 -1.2
vt -0.4012501 0.2
vt -0.30125 -1.2
vt -0.30125 0.2
vt -0.2 0.3
vt -0.2 0.8670001
vt 1.2 0.3
vt 1.2 0.8670001
vt -0.30125 0.3
vt -0.4012501 0.3
vt -0.30125 0.8670001
vt -0.4012501 0.8670001
vt 0.4012501 0.3
vt 0.30125 0.3
vt 0.4012501 0.8670001
vt 0.30125 0.8670001
vt 0.2 0.8670001
vt 0.2 0.3
vt -1.2 0.8670001
vt -1.2 0.3
vt -0.4012501 -0.2
vt -0.4012501 1.2
vt -0.30125 -0.2
vt -0.30125 1.2

usemtl custom1(Clone)

f 6/234/11 109/233/11 108/232/11
f 109/233/11 6/234/11 5/235/11
f 6/238/56 110/237/56 5/236/56
f 110/237/56 6/238/56 111/239/56
f 110/242/3 109/241/3 5/240/3
f 109/241/3 110/242/3 112/243/3
f 113/246/4 6/245/4 108/244/4
f 6/245/4 113/246/4 111/247/4
f 113/250/57 109/249/57 112/248/57
f 109/249/57 113/250/57 108/251/57
f 110/254/8 113/253/8 112/252/8
f 113/253/8 110/254/8 111/255/8

g block

v -0.3 1 1.5
v -0.3 1 -0.5
v -0.5 1.2 -0.5
v -0.3 1.2 -0.5



usemtl _defaultMat(Clone)

f 25/48/1 115/70/1 114/69/1
f 115/70/1 25/48/1 18/40/1
f 25/51/24 116/27/24 18/41/24
f 116/27/24 25/51/24 44/84/24
f 116/36/20 115/44/20 18/43/20
f 115/44/20 116/36/20 117/33/20
f 42/21/21 25/41/21 114/42/21
f 25/41/21 42/21/21 44/27/21
f 42/93/25 115/43/25 117/36/25
f 115/43/25 42/93/25 114/53/25
f 116/46/6 42/80/6 117/79/6
f 42/80/6 116/46/6 44/56/6

g block

v 0.4 0.3 -0.2
v 0.4 0.3 -0.3
v -0.5 0.3 -0.2
v -0.5 0.3 -0.3
v -0.5 0.8670001 -0.3
v -0.5 0.8670001 -0.2
v 0.4 0.8670001 -0.3
v 0.4 0.8670001 -0.2

vn 0 -0.567 0
vn -0.9 0 0
vn 0.9 0 0
vn 0 0.567 0

vt -0.4 -1.3
vt -0.4 -1.2
vt 0.5 -1.3
vt 0.5 -1.2
vt 1.2 0.3
vt 1.2 0.8670001
vt 1.3 0.3
vt 1.3 0.8670001
vt 0.5 0.3
vt -0.4 0.3
vt 0.5 0.8670001
vt -0.4 0.8670001
vt 0.4 0.3
vt -0.5 0.3
vt 0.4 0.8670001
vt -0.5 0.8670001
vt -1.2 0.8670001
vt -1.2 0.3
vt -1.3 0.8670001
vt -1.3 0.3
vt -0.4 1.2
vt -0.4 1.3
vt 0.5 1.2
vt 0.5 1.3

usemtl custom1(Clone)

f 120/258/58 119/257/58 118/256/58
f 119/257/58 120/258/58 121/259/58
f 120/262/59 122/261/59 121/260/59
f 122/261/59 120/262/59 123/263/59
f 122/266/13 119/265/13 121/264/13
f 119/265/13 122/266/13 124/267/13
f 125/270/9 120/269/9 118/268/9
f 120/269/9 125/270/9 123/271/9
f 125/274/60 119/273/60 124/272/60
f 119/273/60 125/274/60 118/275/60
f 122/278/61 125/277/61 124/276/61
f 125/277/61 122/278/61 123/279/61

g block

v 0.4012501 0.3 1.2
v 0.4012501 0.3 -0.2
v 0.30125 0.3 1.2
v 0.30125 0.3 -0.2
v 0.30125 0.8670001 -0.2
v 0.30125 0.8670001 1.2
v 0.4012501 0.8670001 -0.2
v 0.4012501 0.8670001 1.2

vn 0 0 -1.4
vn 0 0 1.4


usemtl custom1(Clone)

f 128/234/58 127/233/58 126/232/58
f 127/233/58 128/234/58 129/235/58
f 128/238/54 130/237/54 129/236/54
f 130/237/54 128/238/54 131/239/54
f 130/242/62 127/241/62 129/240/62
f 127/241/62 130/242/62 132/243/62
f 133/246/63 128/245/63 126/244/63
f 128/245/63 133/246/63 131/247/63
f 133/250/12 127/249/12 132/248/12
f 127/249/12 133/250/12 126/251/12
f 130/254/61 133/253/61 132/252/61
f 133/253/61 130/254/61 131/255/61

g block

v 0.4 0.3 1.3
v 0.4 0.3 1.2
v -0.5 0.3 1.3
v -0.5 0.3 1.2
v -0.5 0.8670001 1.2
v -0.5 0.8670001 1.3
v 0.4 0.8670001 1.2
v 0.4 0.8670001 1.3



usemtl custom1(Clone)

f 136/258/58 135/257/58 134/256/58
f 135/257/58 136/258/58 137/259/58
f 136/262/59 138/261/59 137/260/59
f 138/261/59 136/262/59 139/263/59
f 138/266/13 135/265/13 137/264/13
f 135/265/13 138/266/13 140/267/13
f 141/270/9 136/269/9 134/268/9
f 136/269/9 141/270/9 139/271/9
f 141/274/60 135/273/60 140/272/60
f 135/273/60 141/274/60 134/275/60
f 138/278/61 141/277/61 140/276/61
f 141/277/61 138/278/61 139/279/61

