# Created by Kenney (www.kenney.nl)

mtllib 3DM_VacuumTubeDoor.mtl

g cylinderHollow_half

v 1.323538 1.082867E-15 0.3000002
v 1.323538 2 0.3000002
v 1.395467 1.082867E-15 0.1408207
v 1.395467 2 0.1408207
v 1.209117 2 0.4366906
v 1.209117 1.082867E-15 0.4366906
v 1.06 1.082867E-15 0.5415769
v 1.06 2 0.5415769
v 0.8863497 1.082867E-15 0.6075112
v 0.8863497 2 0.6075112
v 1.42 0 -0.02999985
v 1.42 2 -0.02999985
v 0.7 1.082867E-15 0.6300001
v 0.7 2 0.6300001
v 0.5136503 1.082867E-15 0.6075112
v 0.5136503 2 0.6075112
v 0.34 1.082867E-15 0.5415769
v 0.34 2 0.5415769
v 0.1908831 1.082867E-15 0.4366906
v 0.1908831 2 0.4366906
v 0.07646161 2 0.3
v 0.07646161 1.082867E-15 0.3
v 0.00453341 2 0.1408206
v 0.00453341 1.082867E-15 0.1408206
v -0.01999998 2 -0.02999997
v -0.01999998 0 -0.02999997
v 0.2729101 0 -0.02999997
v 0.2729101 2 -0.02999997
v 1.12709 0 -0.02999985
v 1.12709 2 -0.02999985
v 0.7 0 0.3614992
v 0.810539 0 0.3481592
v 0.7 2 0.3614992
v 0.810539 2 0.3481592
v 0.913545 0 0.3090483
v 0.913545 2 0.3090483
v 0.589461 2 0.3481592
v 0.589461 0 0.3481592
v 0.486455 2 0.3090483
v 0.486455 0 0.3090483
v 0.3980018 2 0.2468317
v 0.3980018 0 0.2468317
v 0.3301293 0 0.1657496
v 0.3301293 2 0.1657496
v 0.2874628 0 0.07132745
v 0.2874628 2 0.07132745
v 1.001998 0 0.2468318
v 1.001998 2 0.2468318
v 1.069871 2 0.1657497
v 1.069871 0 0.1657497
v 1.112537 2 0.07132757
v 1.112537 0 0.07132757

vn 1.247077 0 0.6600001
vn 1.390933 0 0.3416413
vn 1.018234 0 0.933381
vn 0.7199999 0 1.143154
vn 0.3726993 0 1.275022
vn 1.427681 0 0.1722947
vn -1.153981E-07 0 1.32
vn -0.3726996 0 1.275022
vn -0.7200001 0 1.143154
vn -1.018234 0 0.9333809
vn -1.247077 0 0.6599999
vn -1.390933 0 0.341641
vn -1.427681 0 0.1722945
vn 1.153981E-07 0 -1.32
vn -0.3726993 0 -1.275022
vn -0.7199999 0 -1.143154
vn 0.3726996 0 -1.275022
vn 0.7200001 0 -1.143154
vn 1.018234 0 -0.9333809
vn 1.247077 0 -0.6599999
vn 1.390933 0 -0.341641
vn 1.427681 0 -0.1722945
vn -1.018234 0 -0.933381
vn -1.247077 0 -0.6600001
vn -1.390933 0 -0.3416413
vn -1.427681 0 -0.1722947
vn 0 -2 0
vn 0 2 0

vt -0.3000002 1.082867E-15
vt -0.3000002 2
vt -0.1408207 1.082867E-15
vt -0.1408207 2
vt -0.4366906 2
vt -0.4366906 1.082867E-15
vt 1.209117 1.082867E-15
vt 1.06 1.082867E-15
vt 1.209117 2
vt 1.06 2
vt 0.8863497 1.082867E-15
vt 0.8863497 2
vt 0.02999985 0
vt 0.02999985 2
vt 0.7 1.082867E-15
vt 0.7 2
vt 0.5136503 1.082867E-15
vt 0.5136503 2
vt 0.34 1.082867E-15
vt 0.34 2
vt 0.1908831 1.082867E-15
vt 0.1908831 2
vt 0.4366905 2
vt 0.4366905 1.082867E-15
vt 0.3 2
vt 0.3 1.082867E-15
vt 0.1408206 2
vt 0.1408206 1.082867E-15
vt -0.02999998 2
vt -0.02999998 0
vt 0.01999998 0
vt -0.2729101 0
vt 0.01999998 2
vt -0.2729101 2
vt -1.12709 0
vt -1.42 0
vt -1.12709 2
vt -1.42 2
vt -0.7 0
vt -0.810539 0
vt -0.7 2
vt -0.810539 2
vt -0.913545 0
vt -0.913545 2
vt -0.589461 2
vt -0.589461 0
vt -0.486455 2
vt -0.486455 0
vt -0.3980018 2
vt -0.3980018 0
vt -0.2468317 0
vt -0.2468317 2
vt -0.1657496 0
vt -0.1657496 2
vt -0.07132746 0
vt -0.07132746 2
vt 0.02999995 0
vt 0.02999995 2
vt -1.001998 0
vt -1.001998 2
vt 0.2468318 2
vt 0.2468318 0
vt 0.1657497 2
vt 0.1657497 0
vt 0.07132753 2
vt 0.07132753 0
vt -0.02999987 2
vt -0.02999987 0
vt 0.01999998 0.02999998
vt -0.004533418 -0.1408206
vt -0.2729101 0.02999995
vt -0.07646167 -0.3
vt -0.1908831 -0.4366905
vt -0.34 -0.5415769
vt -0.2874628 -0.07132746
vt -0.3301293 -0.1657496
vt -0.3980018 -0.2468317
vt -0.5136503 -0.6075112
vt -0.486455 -0.3090483
vt -0.589461 -0.3481592
vt -0.7 -0.6300001
vt -0.7 -0.3614992
vt -0.810539 -0.3481592
vt -0.8863497 -0.6075112
vt -0.913545 -0.3090483
vt -1.06 -0.5415769
vt -1.001998 -0.2468318
vt -1.069871 -0.1657497
vt -1.209117 -0.4366906
vt -1.112537 -0.07132753
vt -1.12709 0.02999987
vt -1.42 0.02999985
vt -1.323538 -0.3000002
vt -1.395467 -0.1408207
vt 0.01999998 -0.02999998
vt -0.2729101 -0.02999995
vt -0.004533418 0.1408206
vt -0.07646167 0.3
vt -0.1908831 0.4366905
vt -0.34 0.5415769
vt -0.2874628 0.07132746
vt -0.3301293 0.1657496
vt -0.3980018 0.2468317
vt -0.5136503 0.6075112
vt -0.486455 0.3090483
vt -0.589461 0.3481592
vt -0.7 0.6300001
vt -0.7 0.3614992
vt -0.8863497 0.6075112
vt -0.810539 0.3481592
vt -0.913545 0.3090483
vt -1.06 0.5415769
vt -1.001998 0.2468318
vt -1.069871 0.1657497
vt -1.209117 0.4366906
vt -1.112537 0.07132753
vt -1.12709 -0.02999987
vt -1.42 -0.02999985
vt -1.323538 0.3000002
vt -1.395467 0.1408207

usemtl _defaultMat(Clone)

f 3/3/2 2/2/1 1/1/1
f 2/2/1 3/3/2 4/4/2
f 5/5/3 1/1/1 2/2/1
f 1/1/1 5/5/3 6/6/3
f 5/9/3 7/8/4 6/7/3
f 7/8/4 5/9/3 8/10/4
f 8/10/4 9/11/5 7/8/4
f 9/11/5 8/10/4 10/12/5
f 11/13/6 4/4/2 3/3/2
f 4/4/2 11/13/6 12/14/6
f 10/12/5 13/15/7 9/11/5
f 13/15/7 10/12/5 14/16/7
f 14/16/7 15/17/8 13/15/7
f 15/17/8 14/16/7 16/18/8
f 16/18/8 17/19/9 15/17/8
f 17/19/9 16/18/8 18/20/9
f 18/20/9 19/21/10 17/19/9
f 19/21/10 18/20/9 20/22/10
f 21/25/11 19/24/10 20/23/10
f 19/24/10 21/25/11 22/26/11
f 23/27/12 22/26/11 21/25/11
f 22/26/11 23/27/12 24/28/12
f 25/29/13 24/28/12 23/27/12
f 24/28/12 25/29/13 26/30/13
f 25/33/14 27/32/14 26/31/14
f 27/32/14 25/33/14 28/34/14
f 30/37/14 11/36/14 29/35/14
f 11/36/14 30/37/14 12/38/14
f 33/41/14 32/40/15 31/39/14
f 32/40/15 33/41/14 34/42/15
f 34/42/15 35/43/16 32/40/15
f 35/43/16 34/42/15 36/44/16
f 31/39/14 37/45/17 33/41/14
f 37/45/17 31/39/14 38/46/17
f 38/46/17 39/47/18 37/45/17
f 39/47/18 38/46/17 40/48/18
f 40/48/18 41/49/19 39/47/18
f 41/49/19 40/48/18 42/50/19
f 43/53/20 41/52/19 42/51/19
f 41/52/19 43/53/20 44/54/20
f 45/55/21 44/54/20 43/53/20
f 44/54/20 45/55/21 46/56/21
f 27/57/22 46/56/21 45/55/21
f 46/56/21 27/57/22 28/58/22
f 36/44/16 47/59/23 35/43/16
f 47/59/23 36/44/16 48/60/23
f 49/63/24 47/62/23 48/61/23
f 47/62/23 49/63/24 50/64/24
f 51/65/25 50/64/24 49/63/24
f 50/64/24 51/65/25 52/66/25
f 30/67/26 52/66/25 51/65/25
f 52/66/25 30/67/26 29/68/26
f 27/71/27 24/70/27 26/69/27
f 24/70/27 27/71/27 22/72/27
f 22/72/27 27/71/27 19/73/27
f 19/73/27 27/71/27 17/74/27
f 17/74/27 27/71/27 45/75/27
f 17/74/27 45/75/27 43/76/27
f 17/74/27 43/76/27 42/77/27
f 17/74/27 42/77/27 15/78/27
f 15/78/27 42/77/27 40/79/27
f 15/78/27 40/79/27 38/80/27
f 15/78/27 38/80/27 13/81/27
f 13/81/27 38/80/27 31/82/27
f 13/81/27 31/82/27 32/83/27
f 13/81/27 32/83/27 9/84/27
f 9/84/27 32/83/27 35/85/27
f 9/84/27 35/85/27 7/86/27
f 7/86/27 35/85/27 47/87/27
f 7/86/27 47/87/27 50/88/27
f 7/86/27 50/88/27 6/89/27
f 6/89/27 50/88/27 52/90/27
f 6/89/27 52/90/27 29/91/27
f 6/89/27 29/91/27 11/92/27
f 6/89/27 11/92/27 1/93/27
f 1/93/27 11/92/27 3/94/27
f 23/97/28 28/96/28 25/95/28
f 28/96/28 23/97/28 21/98/28
f 28/96/28 21/98/28 20/99/28
f 28/96/28 20/99/28 18/100/28
f 28/96/28 18/100/28 46/101/28
f 46/101/28 18/100/28 44/102/28
f 44/102/28 18/100/28 41/103/28
f 41/103/28 18/100/28 16/104/28
f 41/103/28 16/104/28 39/105/28
f 39/105/28 16/104/28 37/106/28
f 37/106/28 16/104/28 14/107/28
f 37/106/28 14/107/28 33/108/28
f 33/108/28 14/107/28 10/109/28
f 33/108/28 10/109/28 34/110/28
f 34/110/28 10/109/28 36/111/28
f 36/111/28 10/109/28 8/112/28
f 36/111/28 8/112/28 48/113/28
f 48/113/28 8/112/28 49/114/28
f 49/114/28 8/112/28 5/115/28
f 49/114/28 5/115/28 51/116/28
f 51/116/28 5/115/28 30/117/28
f 30/117/28 5/115/28 12/118/28
f 12/118/28 5/115/28 2/119/28
f 12/118/28 2/119/28 4/120/28

