# Created by Kenney (www.kenney.nl)

mtllib CorkBoard.mtl

g mergedBlocks

v 3.05 0.1 0.05
v 3.05 0.1 -0.05
v 2.95 0.1 0.05
v 2.95 0.1 -0.05
v 2.95 1.6 -0.05
v 2.95 1.6 0.05
v 3.05 1.6 -0.05
v 3.05 1.6 0.05
v -2.95 0.1 0.05
v -2.95 0.1 -0.05
v -3.05 0.1 0.05
v -3.05 0.1 -0.05
v -3.05 1.6 -0.05
v -3.05 1.6 0.05
v -2.95 1.6 -0.05
v -2.95 1.6 0.05
v 3 1.5 0.05
v 3 1.5 -0.05
v -3 1.5 0.05
v -3 1.5 -0.05
v -3 1.6 -0.05
v -3 1.6 0.05
v 3 1.6 -0.05
v 3 1.6 0.05
v 3 0.1 0.05
v 3 0.1 -0.05
v -3 0.1 0.05
v -3 0.1 -0.05
v -3 0.2 -0.05
v -3 0.2 0.05
v 3 0.2 -0.05
v 3 0.2 0.05
v 2.95 0.2 0.025
v 2.95 0.2 -0.025
v -2.95 0.2 0.025
v -2.95 0.2 -0.025
v -2.95 1.5 -0.025
v -2.95 1.5 0.025
v 2.95 1.5 -0.025
v 2.95 1.5 0.025

vn 0 -1 0
vn -1 0 0
vn 0 0 -1
vn 0 0 1
vn 1 0 0
vn 0 1 0

vt -3 -0.05
vt -3 0.05
vt 3 -0.05
vt 3 0.05
vt -0.05 0.1
vt -0.05 0.2
vt 0.05 0.1
vt 0.05 0.2
vt 3 0.1
vt -3 0.1
vt 3 0.2
vt -3 0.2
vt -2.95 -0.025
vt -2.95 0.025
vt 2.95 -0.025
vt 2.95 0.025
vt -0.025 0.2
vt -0.025 1.5
vt 0.025 0.2
vt 0.025 1.5
vt 2.95 0.2
vt -2.95 0.2
vt 2.95 1.5
vt -2.95 1.5

usemtl _defaultMat(Clone)

f 3/3/1 2/2/1 1/1/1
f 2/2/1 3/3/1 4/4/1
f 3/7/2 5/6/2 4/5/2
f 5/6/2 3/7/2 6/8/2
f 5/11/3 2/10/3 4/9/3
f 2/10/3 5/11/3 7/12/3
f 8/11/4 3/10/4 1/9/4
f 3/10/4 8/11/4 6/12/4
f 8/6/5 2/7/5 7/8/5
f 2/7/5 8/6/5 1/5/5
f 5/3/6 8/2/6 7/1/6
f 8/2/6 5/3/6 6/4/6
f 11/3/1 10/2/1 9/1/1
f 10/2/1 11/3/1 12/4/1
f 11/7/2 13/6/2 12/5/2
f 13/6/2 11/7/2 14/8/2
f 13/11/3 10/10/3 12/9/3
f 10/10/3 13/11/3 15/12/3
f 16/11/4 11/10/4 9/9/4
f 11/10/4 16/11/4 14/12/4
f 16/6/5 10/7/5 15/8/5
f 10/7/5 16/6/5 9/5/5
f 13/3/6 16/2/6 15/1/6
f 16/2/6 13/3/6 14/4/6
f 19/3/1 18/2/1 17/1/1
f 18/2/1 19/3/1 20/4/1
f 19/7/2 21/6/2 20/5/2
f 21/6/2 19/7/2 22/8/2
f 21/11/3 18/10/3 20/9/3
f 18/10/3 21/11/3 23/12/3
f 24/11/4 19/10/4 17/9/4
f 19/10/4 24/11/4 22/12/4
f 24/6/5 18/7/5 23/8/5
f 18/7/5 24/6/5 17/5/5
f 21/3/6 24/2/6 23/1/6
f 24/2/6 21/3/6 22/4/6
f 27/3/1 26/2/1 25/1/1
f 26/2/1 27/3/1 28/4/1
f 27/7/2 29/6/2 28/5/2
f 29/6/2 27/7/2 30/8/2
f 29/11/3 26/10/3 28/9/3
f 26/10/3 29/11/3 31/12/3
f 32/11/4 27/10/4 25/9/4
f 27/10/4 32/11/4 30/12/4
f 32/6/5 26/7/5 31/8/5
f 26/7/5 32/6/5 25/5/5
f 29/3/6 32/2/6 31/1/6
f 32/2/6 29/3/6 30/4/6

usemtl custom1(Clone)

f 35/15/1 34/14/1 33/13/1
f 34/14/1 35/15/1 36/16/1
f 35/19/2 37/18/2 36/17/2
f 37/18/2 35/19/2 38/20/2
f 37/23/3 34/22/3 36/21/3
f 34/22/3 37/23/3 39/24/3
f 40/23/4 35/22/4 33/21/4
f 35/22/4 40/23/4 38/24/4
f 40/18/5 34/19/5 39/20/5
f 34/19/5 40/18/5 33/17/5
f 37/15/6 40/14/6 39/13/6
f 40/14/6 37/15/6 38/16/6

