# Created by Kenney (www.kenney.nl)

mtllib ProfileDisplay.mtl

g mergedBlocks

v 0.7 1.8 0.05
v 0.7 1.8 -0.05
v -0.7 1.8 0.05
v -0.7 1.8 -0.05
v -0.7 1.9 -0.05
v -0.7 1.9 0.05
v 0.7 1.9 -0.05
v 0.7 1.9 0.05
v 0.7 0.1 0.05
v 0.7 0.1 -0.05
v -0.7 0.1 0.05
v -0.7 0.1 -0.05
v -0.7 0.2 -0.05
v -0.7 0.2 0.05
v 0.7 0.2 -0.05
v 0.7 0.2 0.05
v 0.6 0.1 0.05
v 0.6 0.1 -0.05
v 0.6 1.9 -0.05
v 0.6 1.9 0.05
v -0.6 0.1 0.05
v -0.6 0.1 -0.05
v -0.6 1.9 -0.05
v -0.6 1.9 0.05
v 0.52125 0.33375 0.05
v -0.52125 0.33375 0.05
v 0.52125 1.67625 0.05
v -0.52125 1.67625 0.05
v 0.695 1.67625 -0.0375
v 0.695 0.33375 -0.0375
v 0.695 1.67625 0.0375
v 0.695 0.33375 0.0375
v 0.52125 1.9 -0.0375
v 0.52125 1.9 0.0375
v -0.52125 1.9 -0.0375
v -0.52125 1.9 0.0375
v -0.52125 0.33375 -0.05
v 0.52125 0.33375 -0.05
v -0.52125 1.67625 -0.05
v 0.52125 1.67625 -0.05
v 0.52125 0.11 0.0375
v 0.52125 0.11 -0.0375
v -0.52125 0.11 0.0375
v -0.52125 0.11 -0.0375
v -0.695 0.33375 -0.0375
v -0.695 1.67625 -0.0375
v -0.695 0.33375 0.0375
v -0.695 1.67625 0.0375

vn 0 -1 0
vn -1 0 0
vn 0 0 -1
vn 0 0 1
vn 1 0 0
vn 0 1 0
vn 0.07164586 0.05563561 -0.9958773
vn 0.07175699 0 -0.9974222
vn 0 -0.05577895 -0.9984431
vn 0.07164586 -0.05563561 -0.9958773
vn 0.7898271 -0.6133295 0
vn 0.7898271 0.6133295 0
vn 0.07164586 0.05563561 0.9958773
vn 0.07175699 0 0.9974222
vn 0.07164586 -0.05563561 0.9958773
vn 0 0.05577895 0.9984431
vn -0.07164586 0.05563561 0.9958773
vn -0.7898271 -0.6133295 0
vn 0 -0.05577895 0.9984431
vn -0.07175699 0 0.9974222
vn -0.07164586 -0.05563561 0.9958773
vn -0.07164586 -0.05563561 -0.9958773
vn -0.07175699 0 -0.9974222
vn -0.7898271 0.6133295 0
vn 0 0.05577895 -0.9984431
vn -0.07164586 0.05563561 -0.9958773

vt -0.7 -0.05
vt -0.7 0.05
vt 0.7 -0.05
vt 0.7 0.05
vt -0.05 1.8
vt -0.05 1.9
vt 0.05 1.8
vt 0.05 1.9
vt 0.7 1.8
vt -0.7 1.8
vt 0.7 1.9
vt -0.7 1.9
vt -0.05 0.1
vt -0.05 0.2
vt 0.05 0.1
vt 0.05 0.2
vt 0.7 0.1
vt -0.7 0.1
vt 0.7 0.2
vt -0.7 0.2
vt -0.6 -0.05
vt -0.6 0.05
vt -0.6 0.1
vt -0.6 1.9
vt 0.6 0.1
vt 0.6 1.9
vt 0.6 -0.05
vt 0.6 0.05
vt 0.52125 0.33375
vt -0.52125 0.33375
vt 0.52125 1.67625
vt -0.52125 1.67625
vt 0.0375 1.67625
vt 0.0375 0.33375
vt -0.0375 1.67625
vt -0.0375 0.33375
vt -0.52125 -0.0375
vt -0.52125 0.0375
vt 0.52125 -0.0375
vt 0.52125 0.0375
vt -0.695 1.67625
vt -0.52125 1.9
vt -0.695 0.33375
vt -0.52125 0.11
vt 0.52125 0.11
vt -0.0375 0.11
vt 0.0375 0.11
vt 0.0375 1.9
vt -0.0375 1.9
vt 0.695 1.67625
vt 0.52125 1.9
vt 0.695 0.33375

usemtl _defaultMat(Clone)

f 3/3/1 2/2/1 1/1/1
f 2/2/1 3/3/1 4/4/1
f 3/7/2 5/6/2 4/5/2
f 5/6/2 3/7/2 6/8/2
f 5/11/3 2/10/3 4/9/3
f 2/10/3 5/11/3 7/12/3
f 8/11/4 3/10/4 1/9/4
f 3/10/4 8/11/4 6/12/4
f 8/6/5 2/7/5 7/8/5
f 2/7/5 8/6/5 1/5/5
f 5/3/6 8/2/6 7/1/6
f 8/2/6 5/3/6 6/4/6
f 11/3/1 10/2/1 9/1/1
f 10/2/1 11/3/1 12/4/1
f 11/15/2 13/14/2 12/13/2
f 13/14/2 11/15/2 14/16/2
f 13/19/3 10/18/3 12/17/3
f 10/18/3 13/19/3 15/20/3
f 16/19/4 11/18/4 9/17/4
f 11/18/4 16/19/4 14/20/4
f 16/14/5 10/15/5 15/16/5
f 10/15/5 16/14/5 9/13/5
f 13/3/6 16/2/6 15/1/6
f 16/2/6 13/3/6 14/4/6
f 17/21/1 10/2/1 9/1/1
f 10/2/1 17/21/1 18/22/1
f 17/15/2 19/6/2 18/13/2
f 19/6/2 17/15/2 20/8/2
f 19/24/3 10/18/3 18/23/3
f 10/18/3 19/24/3 7/12/3
f 8/11/4 17/25/4 9/17/4
f 17/25/4 8/11/4 20/26/4
f 8/6/5 10/15/5 7/8/5
f 10/15/5 8/6/5 9/13/5
f 19/21/6 8/2/6 7/1/6
f 8/2/6 19/21/6 20/22/6
f 11/3/1 22/28/1 21/27/1
f 22/28/1 11/3/1 12/4/1
f 11/15/2 5/6/2 12/13/2
f 5/6/2 11/15/2 6/8/2
f 5/11/3 22/25/3 12/17/3
f 22/25/3 5/11/3 23/26/3
f 24/24/4 11/18/4 21/23/4
f 11/18/4 24/24/4 6/12/4
f 24/6/5 22/15/5 23/8/5
f 22/15/5 24/6/5 21/13/5
f 5/3/6 24/28/6 23/27/6
f 24/28/6 5/3/6 6/4/6

usemtl custom1(Clone)

f 27/31/4 26/30/4 25/29/4
f 26/30/4 27/31/4 28/32/4
f 31/35/5 30/34/5 29/33/5
f 30/34/5 31/35/5 32/36/5
f 35/39/6 34/38/6 33/37/6
f 34/38/6 35/39/6 36/40/6
f 39/31/3 38/30/3 37/29/3
f 38/30/3 39/31/3 40/32/3
f 43/39/1 42/38/1 41/37/1
f 42/38/1 43/39/1 44/40/1
f 47/34/2 46/35/2 45/36/2
f 46/35/2 47/34/2 48/33/2
f 33/42/7 29/41/7 40/32/7
f 40/32/8 30/43/8 38/30/8
f 30/43/8 40/32/8 29/41/8
f 44/45/9 38/30/9 42/44/9
f 38/30/9 44/45/9 37/29/9
f 38/30/10 30/43/10 42/44/10
f 41/46/11 30/34/11 32/36/11
f 30/34/11 41/46/11 42/47/11
f 33/48/12 31/35/12 29/33/12
f 31/35/12 33/48/12 34/49/12
f 34/51/13 27/31/13 31/50/13
f 31/50/14 25/29/14 32/52/14
f 25/29/14 31/50/14 27/31/14
f 25/29/15 41/45/15 32/52/15
f 34/51/16 28/32/16 27/31/16
f 28/32/16 34/51/16 36/42/16
f 28/32/17 36/42/17 48/41/17
f 43/47/18 45/36/18 44/46/18
f 45/36/18 43/47/18 47/34/18
f 25/29/19 43/44/19 41/45/19
f 43/44/19 25/29/19 26/30/19
f 26/30/20 48/41/20 47/43/20
f 48/41/20 26/30/20 28/32/20
f 26/30/21 47/43/21 43/44/21
f 45/52/22 37/29/22 44/45/22
f 45/52/23 39/31/23 37/29/23
f 39/31/23 45/52/23 46/50/23
f 48/33/24 35/49/24 46/35/24
f 35/49/24 48/33/24 36/48/24
f 39/31/25 33/42/25 40/32/25
f 33/42/25 39/31/25 35/51/25
f 35/51/26 39/31/26 46/50/26

