# Created by Kenney (www.kenney.nl)

mtllib AFM_PC_W_Display.mtl

g arc

v -0.5000001 1.1 0.4
v 0.5 1.1 0.4000001
v -0.5 1.1 -0.4100001
v 0.5000001 1.1 -0.41
v 0.5000001 1.129505 -0.3961999
v 0.5 1.129505 0.3862001
v 0.5 1.157 0.3457404
v 0.5000001 1.157 -0.3557402
v 0.5 1.18061 0.2813783
v 0.5000001 1.18061 -0.2913782
v 0.5 1.198727 0.1975001
v 0.5000001 1.198727 -0.2075
v 0.5000001 1.210116 0.0998218
v 0.5000001 1.210116 -0.1098217
v 0.5000001 1.214 -0.00499994
v -0.5000001 1.129505 0.3862
v -0.5 1.129505 -0.3962001
v -0.5000001 1.157 0.3457403
v -0.5 1.157 -0.3557404
v -0.5000001 1.18061 0.2813782
v -0.5 1.18061 -0.2913783
v -0.5000001 1.198727 0.1975
v -0.5 1.198727 -0.2075001
v -0.5000001 1.210116 0.09982168
v -0.5000001 1.210116 -0.1098218
v -0.5000001 1.214 -0.005000059

vn 0 -0.228 0
vn 1 0 1.192093E-07
vn -1 0 -1.192093E-07
vn 1.192093E-07 0.02975997 -0.8030705
vn 1.192093E-07 0.05901074 -0.7824
vn 5.960464E-08 0.114 -0.7014807
vn 5.960464E-08 0.1612203 -0.5727565
vn 5.960464E-08 0.1974538 -0.4050001
vn 2.980232E-08 0.2202311 -0.2096435
vn 0 0.228 0
vn -2.980232E-08 0.2202311 0.2096435
vn -5.960464E-08 0.1974538 0.4050001
vn -5.960464E-08 0.1612203 0.5727565
vn -5.960464E-08 0.114 0.7014807
vn -1.192093E-07 0.05901074 0.7824
vn -1.192093E-07 0.02975997 0.8030705

vt 0.5000001 -0.4
vt -0.5 -0.4000001
vt 0.5 0.4100001
vt -0.5000001 0.41
vt 0.41 1.1
vt -0.4000001 1.1
vt 0.3961999 1.129505
vt -0.3862001 1.129505
vt -0.3457404 1.157
vt 0.3557403 1.157
vt -0.2813784 1.18061
vt 0.2913782 1.18061
vt -0.1975001 1.198727
vt 0.2075 1.198727
vt -0.09982179 1.210116
vt 0.1098217 1.210116
vt 0.004999937 1.214
vt 0.4 1.1
vt -0.4100001 1.1
vt 0.3862 1.129505
vt -0.3962001 1.129505
vt 0.3457403 1.157
vt -0.3557404 1.157
vt 0.2813782 1.18061
vt -0.2913783 1.18061
vt 0.1975 1.198727
vt -0.2075001 1.198727
vt 0.09982167 1.210116
vt -0.1098218 1.210116
vt -0.005000057 1.214
vt -0.5000001 1.1
vt -0.5000001 1.129505
vt 0.5 1.1
vt 0.5 1.129505
vt -0.5000001 -0.3961999
vt -0.5000001 -0.3557403
vt 0.5 -0.3962001
vt 0.5 -0.3557404
vt -0.5000001 -0.2913782
vt 0.5 -0.2913783
vt 0.5000001 -0.2075001
vt -0.5000001 -0.2075
vt 0.5000001 -0.1098218
vt -0.5000001 -0.1098217
vt 0.5000001 -0.005000057
vt -0.5000001 -0.004999937
vt 0.5000001 0.09982167
vt -0.5000001 0.09982179
vt 0.5000001 0.1975
vt -0.5000001 0.1975001
vt 0.5000001 0.2813782
vt -0.5 0.2813784
vt -0.5 0.3457404
vt 0.5000001 0.3457403
vt -0.5 0.3862001
vt 0.5000001 0.3862

usemtl _defaultMat(Clone)

f 3/3/1 2/2/1 1/1/1
f 2/2/1 3/3/1 4/4/1
f 5/7/2 2/6/2 4/5/2
f 2/6/2 5/7/2 6/8/2
f 6/8/2 5/7/2 7/9/2
f 7/9/2 5/7/2 8/10/2
f 7/9/2 8/10/2 9/11/2
f 9/11/2 8/10/2 10/12/2
f 9/11/2 10/12/2 11/13/2
f 11/13/2 10/12/2 12/14/2
f 11/13/2 12/14/2 13/15/2
f 13/15/2 12/14/2 14/16/2
f 13/15/2 14/16/2 15/17/2
f 16/20/3 3/19/3 1/18/3
f 3/19/3 16/20/3 17/21/3
f 17/21/3 16/20/3 18/22/3
f 17/21/3 18/22/3 19/23/3
f 19/23/3 18/22/3 20/24/3
f 19/23/3 20/24/3 21/25/3
f 21/25/3 20/24/3 22/26/3
f 21/25/3 22/26/3 23/27/3
f 23/27/3 22/26/3 24/28/3
f 23/27/3 24/28/3 25/29/3
f 25/29/3 24/28/3 26/30/3
f 3/33/4 5/32/5 4/31/4
f 5/32/5 3/33/4 17/34/5
f 17/37/5 8/36/6 5/35/5
f 8/36/6 17/37/5 19/38/6
f 19/38/6 10/39/7 8/36/6
f 10/39/7 19/38/6 21/40/7
f 23/41/8 10/39/7 21/40/7
f 10/39/7 23/41/8 12/42/8
f 25/43/9 12/42/8 23/41/8
f 12/42/8 25/43/9 14/44/9
f 26/45/10 14/44/9 25/43/9
f 14/44/9 26/45/10 15/46/10
f 24/47/11 15/46/10 26/45/10
f 15/46/10 24/47/11 13/48/11
f 22/49/12 13/48/11 24/47/11
f 13/48/11 22/49/12 11/50/12
f 20/51/13 11/50/12 22/49/12
f 11/50/12 20/51/13 9/52/13
f 20/51/13 7/53/14 9/52/13
f 7/53/14 20/51/13 18/54/14
f 18/54/14 6/55/15 7/53/14
f 6/55/15 18/54/14 16/56/15
f 16/32/15 2/33/16 6/34/15
f 2/33/16 16/32/15 1/31/16

g arc

v -0.5 0.295 0.395
v 0.5 0.295 0.395
v -0.5 1.105 0.395
v 0.5 1.105 0.395
v 0.5 1.0912 0.4245054
v 0.5 0.3088 0.4245054
v 0.5 0.3492597 0.452
v 0.5 1.05074 0.452
v 0.5 0.4136218 0.4756102
v 0.5 0.9863783 0.4756102
v 0.5 0.4975 0.4937269
v 0.5 0.9025 0.4937269
v 0.5 0.5951782 0.5051155
v 0.5 0.8048217 0.5051155
v 0.5 0.7 0.5090001
v -0.5 0.3088 0.4245054
v -0.5 1.0912 0.4245054
v -0.5 0.3492597 0.452
v -0.5 1.05074 0.452
v -0.5 0.4136218 0.4756102
v -0.5 0.9863783 0.4756102
v -0.5 0.4975 0.4937269
v -0.5 0.9025 0.4937269
v -0.5 0.5951782 0.5051155
v -0.5 0.8048217 0.5051155
v -0.5 0.7 0.509

vn 0 0 -0.228
vn 1 0 0
vn -1 0 0
vn 0 0.8030703 0.02975997
vn 0 0.7823999 0.05901074
vn 0 0.7014806 0.114
vn 0 0.5727565 0.1612203
vn 0 0.405 0.1974538
vn 0 0.2096434 0.2202311
vn 0 0 0.228
vn 0 -0.2096434 0.2202311
vn 0 -0.405 0.1974538
vn 0 -0.5727565 0.1612203
vn 0 -0.7014806 0.114
vn 0 -0.7823999 0.05901074
vn 0 -0.8030704 0.02975997

vt 0.5 0.295
vt -0.5 0.295
vt 0.5 1.105
vt -0.5 1.105
vt -0.395 1.105
vt -0.395 0.295
vt -0.4245054 1.0912
vt -0.4245054 0.3088
vt -0.452 0.3492597
vt -0.452 1.05074
vt -0.4756102 0.4136218
vt -0.4756102 0.9863783
vt -0.4937269 0.4975
vt -0.4937269 0.9025
vt -0.5051156 0.5951782
vt -0.5051156 0.8048217
vt -0.509 0.7
vt 0.395 0.295
vt 0.395 1.105
vt 0.4245054 0.3088
vt 0.4245054 1.0912
vt 0.452 0.3492597
vt 0.452 1.05074
vt 0.4756102 0.4136218
vt 0.4756102 0.9863783
vt 0.4937269 0.4975
vt 0.4937269 0.9025
vt 0.5051156 0.5951782
vt 0.5051156 0.8048217
vt 0.509 0.7
vt -0.5 0.395
vt -0.5 0.4245054
vt 0.5 0.395
vt 0.5 0.4245054
vt 0.5 1.0912
vt 0.5 1.05074
vt -0.5 1.0912
vt -0.5 1.05074
vt 0.5 0.9863783
vt -0.5 0.9863783
vt -0.5 0.9025
vt 0.5 0.9025
vt -0.5 0.8048217
vt 0.5 0.8048217
vt -0.5 0.7
vt 0.5 0.7
vt -0.5 0.5951782
vt 0.5 0.5951782
vt -0.5 0.4975
vt 0.5 0.4975
vt -0.5 0.4136218
vt 0.5 0.4136218
vt 0.5 0.3492597
vt -0.5 0.3492597
vt 0.5 0.3088
vt -0.5 0.3088
vt -0.5 -0.4245054
vt -0.5 -0.395
vt 0.5 -0.4245054
vt 0.5 -0.395

usemtl _defaultMat(Clone)

f 29/59/17 28/58/17 27/57/17
f 28/58/17 29/59/17 30/60/17
f 31/63/18 28/62/18 30/61/18
f 28/62/18 31/63/18 32/64/18
f 32/64/18 31/63/18 33/65/18
f 33/65/18 31/63/18 34/66/18
f 33/65/18 34/66/18 35/67/18
f 35/67/18 34/66/18 36/68/18
f 35/67/18 36/68/18 37/69/18
f 37/69/18 36/68/18 38/70/18
f 37/69/18 38/70/18 39/71/18
f 39/71/18 38/70/18 40/72/18
f 39/71/18 40/72/18 41/73/18
f 42/76/19 29/75/19 27/74/19
f 29/75/19 42/76/19 43/77/19
f 43/77/19 42/76/19 44/78/19
f 43/77/19 44/78/19 45/79/19
f 45/79/19 44/78/19 46/80/19
f 45/79/19 46/80/19 47/81/19
f 47/81/19 46/80/19 48/82/19
f 47/81/19 48/82/19 49/83/19
f 49/83/19 48/82/19 50/84/19
f 49/83/19 50/84/19 51/85/19
f 51/85/19 50/84/19 52/86/19
f 29/89/20 31/88/21 30/87/20
f 31/88/21 29/89/20 43/90/21
f 43/93/21 34/92/22 31/91/21
f 34/92/22 43/93/21 45/94/22
f 45/94/22 36/95/23 34/92/22
f 36/95/23 45/94/22 47/96/23
f 49/97/24 36/95/23 47/96/23
f 36/95/23 49/97/24 38/98/24
f 51/99/25 38/98/24 49/97/24
f 38/98/24 51/99/25 40/100/25
f 52/101/26 40/100/25 51/99/25
f 40/100/25 52/101/26 41/102/26
f 50/103/27 41/102/26 52/101/26
f 41/102/26 50/103/27 39/104/27
f 48/105/28 39/104/27 50/103/27
f 39/104/27 48/105/28 37/106/28
f 46/107/29 37/106/28 48/105/28
f 37/106/28 46/107/29 35/108/29
f 46/107/29 33/109/30 35/108/29
f 33/109/30 46/107/29 44/110/30
f 44/110/30 32/111/31 33/109/30
f 32/111/31 44/110/30 42/112/31
f 42/115/31 28/114/32 32/113/31
f 28/114/32 42/115/31 27/116/32

g arc

v -0.5 1.105 -0.405
v 0.5 1.105 -0.405
v -0.5 0.295 -0.405
v 0.5 0.295 -0.405
v 0.5 0.3088 -0.4345054
v 0.5 1.0912 -0.4345054
v 0.5 1.05074 -0.462
v 0.5 0.3492597 -0.462
v 0.5 0.9863783 -0.4856102
v 0.5 0.4136218 -0.4856102
v 0.5 0.9025 -0.5037269
v 0.5 0.4975 -0.5037269
v 0.5 0.8048217 -0.5151155
v 0.5 0.5951782 -0.5151155
v 0.5 0.7 -0.519
v -0.5 1.0912 -0.4345054
v -0.5 0.3088 -0.4345054
v -0.5 1.05074 -0.462
v -0.5 0.3492597 -0.462
v -0.5 0.9863783 -0.4856102
v -0.5 0.4136218 -0.4856102
v -0.5 0.9025 -0.5037268
v -0.5 0.4975 -0.5037268
v -0.5 0.8048217 -0.5151155
v -0.5 0.5951782 -0.5151155
v -0.5 0.7 -0.5190001

vn 0 -0.8030704 -0.02975997
vn 0 -0.7823999 -0.05901074
vn 0 -0.7014806 -0.114
vn 0 -0.5727565 -0.1612203
vn 0 -0.405 -0.1974538
vn 0 -0.2096434 -0.2202311
vn 0 0.2096434 -0.2202311
vn 0 0.405 -0.1974538
vn 0 0.5727565 -0.1612203
vn 0 0.7014806 -0.114
vn 0 0.7823999 -0.05901074
vn 0 0.8030704 -0.02975997

vt 0.405 0.295
vt 0.405 1.105
vt 0.4345054 0.3088
vt 0.4345054 1.0912
vt 0.462 1.05074
vt 0.462 0.3492597
vt 0.4856102 0.9863783
vt 0.4856102 0.4136218
vt 0.5037269 0.9025
vt 0.5037269 0.4975
vt 0.5151156 0.8048217
vt 0.5151156 0.5951782
vt 0.519 0.7
vt -0.405 1.105
vt -0.405 0.295
vt -0.4345054 1.0912
vt -0.4345054 0.3088
vt -0.462 1.05074
vt -0.462 0.3492597
vt -0.4856102 0.9863783
vt -0.4856102 0.4136218
vt -0.5037269 0.9025
vt -0.5037269 0.4975
vt -0.5151156 0.8048217
vt -0.5151156 0.5951782
vt -0.519 0.7
vt -0.5 0.405
vt -0.5 0.4345054
vt 0.5 0.405
vt 0.5 0.4345054
vt -0.5 -0.4345054
vt -0.5 -0.405
vt 0.5 -0.4345054
vt 0.5 -0.405

usemtl _defaultMat(Clone)

f 55/58/26 54/59/26 53/60/26
f 54/59/26 55/58/26 56/57/26
f 57/119/18 54/118/18 56/117/18
f 54/118/18 57/119/18 58/120/18
f 58/120/18 57/119/18 59/121/18
f 59/121/18 57/119/18 60/122/18
f 59/121/18 60/122/18 61/123/18
f 61/123/18 60/122/18 62/124/18
f 61/123/18 62/124/18 63/125/18
f 63/125/18 62/124/18 64/126/18
f 63/125/18 64/126/18 65/127/18
f 65/127/18 64/126/18 66/128/18
f 65/127/18 66/128/18 67/129/18
f 68/132/19 55/131/19 53/130/19
f 55/131/19 68/132/19 69/133/19
f 69/133/19 68/132/19 70/134/19
f 69/133/19 70/134/19 71/135/19
f 71/135/19 70/134/19 72/136/19
f 71/135/19 72/136/19 73/137/19
f 73/137/19 72/136/19 74/138/19
f 73/137/19 74/138/19 75/139/19
f 75/139/19 74/138/19 76/140/19
f 75/139/19 76/140/19 77/141/19
f 77/141/19 76/140/19 78/142/19
f 55/145/33 57/144/34 56/143/33
f 57/144/34 55/145/33 69/146/34
f 69/111/34 60/110/35 57/112/34
f 60/110/35 69/111/34 71/109/35
f 71/109/35 62/107/36 60/110/35
f 62/107/36 71/109/35 73/108/36
f 75/106/37 62/107/36 73/108/36
f 62/107/36 75/106/37 64/105/37
f 77/104/38 64/105/37 75/106/37
f 64/105/37 77/104/38 66/103/38
f 78/102/17 66/103/38 77/104/38
f 66/103/38 78/102/17 67/101/17
f 76/100/39 67/101/17 78/102/17
f 67/101/17 76/100/39 65/99/39
f 74/98/40 65/99/39 76/100/39
f 65/99/39 74/98/40 63/97/40
f 72/95/41 63/97/40 74/98/40
f 63/97/40 72/95/41 61/96/41
f 72/95/41 59/94/42 61/96/41
f 59/94/42 72/95/41 70/92/42
f 70/92/42 58/93/43 59/94/42
f 58/93/43 70/92/42 68/91/43
f 68/149/43 54/148/44 58/147/43
f 54/148/44 68/149/43 53/150/44

g block

v 0.5 0.29 0.4
v 0.5 0.29 -0.41
v -0.5 0.29 0.4
v -0.5 0.29 -0.41
v -0.5 1.1 -0.41
v -0.5 1.1 0.4
v 0.5 1.1 -0.41
v 0.5 1.1 0.4

vn 0 -0.81 0
vn 0 0 -0.81
vn 0 0 0.81
vn 0 0.81 0

vt -0.5 -0.4
vt -0.5 0.41
vt 0.5 -0.4
vt 0.5 0.41
vt -0.41 0.29
vt -0.41 1.1
vt 0.4 0.29
vt 0.5 0.29
vt -0.5 0.29
vt -0.5 1.1
vt 0.41 0.29
vt -0.4 1.1
vt -0.4 0.29
vt -0.5 -0.41
vt -0.5 0.4
vt 0.5 -0.41
vt 0.5 0.4

usemtl _defaultMat(Clone)

f 81/153/45 80/152/45 79/151/45
f 80/152/45 81/153/45 82/154/45
f 81/157/19 83/156/19 82/155/19
f 83/156/19 81/157/19 84/18/19
f 83/33/46 80/159/46 82/158/46
f 80/159/46 83/33/46 85/160/46
f 86/33/47 81/159/47 79/158/47
f 81/159/47 86/33/47 84/160/47
f 86/162/18 80/161/18 85/5/18
f 80/161/18 86/162/18 79/163/18
f 83/166/48 86/165/48 85/164/48
f 86/165/48 83/166/48 84/167/48

g block_bevel

v -0.4625 0.47 0.405
v -0.5375 0.47 0.405
v -0.4625 1.01 0.405
v -0.5375 1.01 0.405
v -0.45 1.01 -0.30375
v -0.45 0.47 -0.30375
v -0.45 1.01 0.30375
v -0.45 0.47 0.30375
v -0.4625 1.1 -0.30375
v -0.4625 1.1 0.30375
v -0.5375 1.1 -0.30375
v -0.5375 1.1 0.30375
v -0.5375 0.47 -0.405
v -0.4625 0.47 -0.405
v -0.5375 1.01 -0.405
v -0.4625 1.01 -0.405
v -0.4625 0.38 0.30375
v -0.4625 0.38 -0.30375
v -0.5375 0.38 0.30375
v -0.5375 0.38 -0.30375
v -0.55 0.47 -0.30375
v -0.55 1.01 -0.30375
v -0.55 0.47 0.30375
v -0.55 1.01 0.30375

vn 0.1 0 0
vn 0 0.72 0
vn 0 -0.72 0
vn -0.1 0 0
vn 0.05773503 0.4156922 -0.4676537
vn 0.07071068 0 -0.5727565
vn 0 -0.5091169 -0.5727565
vn 0.05773503 -0.4156922 -0.4676537
vn 0.07071068 -0.5091169 0
vn 0.07071068 0.5091169 0
vn 0.05773503 0.4156922 0.4676537
vn 0.07071068 0 0.5727565
vn 0.05773503 -0.4156922 0.4676537
vn 0 0.5091169 0.5727565
vn -0.05773503 0.4156922 0.4676537
vn -0.07071068 -0.5091169 0
vn 0 -0.5091169 0.5727565
vn -0.07071068 0 0.5727565
vn -0.05773503 -0.4156922 0.4676537
vn -0.05773503 -0.4156922 -0.4676537
vn -0.07071068 0 -0.5727565
vn -0.07071068 0.5091169 0
vn 0 0.5091169 -0.5727565
vn -0.05773503 0.4156922 -0.4676537

vt -0.4625 0.47
vt -0.5375 0.47
vt -0.4625 1.01
vt -0.5375 1.01
vt 0.30375 1.01
vt 0.30375 0.47
vt -0.30375 1.01
vt -0.30375 0.47
vt 0.4625 -0.30375
vt 0.4625 0.30375
vt 0.5375 -0.30375
vt 0.5375 0.30375
vt 0.5375 0.47
vt 0.4625 0.47
vt 0.5375 1.01
vt 0.4625 1.01
vt 0.405 1.01
vt 0.30375 1.1
vt 0.405 0.47
vt 0.4625 0.405
vt 0.5375 0.405
vt 0.30375 0.38
vt -0.30375 0.38
vt -0.30375 1.1
vt -0.405 1.01
vt -0.405 0.47
vt 0.4625 -0.405
vt 0.5375 -0.405

usemtl dark(Clone)

f 89/170/47 88/169/47 87/168/47
f 88/169/47 89/170/47 90/171/47
f 93/174/49 92/173/49 91/172/49
f 92/173/49 93/174/49 94/175/49
f 97/178/50 96/177/50 95/176/50
f 96/177/50 97/178/50 98/179/50
f 101/182/46 100/181/46 99/180/46
f 100/181/46 101/182/46 102/183/46
f 105/178/51 104/177/51 103/176/51
f 104/177/51 105/178/51 106/179/51
f 109/173/52 108/174/52 107/175/52
f 108/174/52 109/173/52 110/172/52
f 95/185/53 91/172/53 102/184/53
f 102/184/54 92/173/54 100/186/54
f 92/173/54 102/184/54 91/172/54
f 106/179/55 100/187/55 104/177/55
f 100/187/55 106/179/55 99/188/55
f 100/186/56 92/173/56 104/189/56
f 103/190/57 92/173/57 94/175/57
f 92/173/57 103/190/57 104/189/57
f 95/185/58 93/174/58 91/172/58
f 93/174/58 95/185/58 96/191/58
f 96/191/59 89/192/59 93/174/59
f 93/174/60 87/193/60 94/175/60
f 87/193/60 93/174/60 89/192/60
f 87/193/61 103/190/61 94/175/61
f 96/177/62 90/188/62 89/187/62
f 90/188/62 96/177/62 98/179/62
f 90/184/63 98/185/63 110/172/63
f 105/189/64 107/175/64 106/190/64
f 107/175/64 105/189/64 109/173/64
f 87/194/65 105/178/65 103/176/65
f 105/178/65 87/194/65 88/195/65
f 88/186/66 110/172/66 109/173/66
f 110/172/66 88/186/66 90/184/66
f 88/186/67 109/173/67 105/189/67
f 107/175/68 99/193/68 106/190/68
f 107/175/69 101/192/69 99/193/69
f 101/192/69 107/175/69 108/174/69
f 110/172/70 97/191/70 108/174/70
f 97/191/70 110/172/70 98/185/70
f 101/195/71 95/176/71 102/194/71
f 95/176/71 101/195/71 97/178/71
f 97/191/72 101/192/72 108/174/72

g block_bevel

v 0.4398125 0.0375 0.5704
v -0.4496125 0.0375 0.5704
v 0.4398125 0.2625 0.5704
v -0.4496125 0.2625 0.5704
v 0.58805 0.2625 -0.4502
v 0.58805 0.0375 -0.4502
v 0.58805 0.2625 0.4246
v 0.58805 0.0375 0.4246
v 0.4398125 0.3 -0.4502
v 0.4398125 0.3 0.4246
v -0.4496125 0.3 -0.4502
v -0.4496125 0.3 0.4246
v -0.4496125 0.0375 -0.596
v 0.4398125 0.0375 -0.596
v -0.4496125 0.2625 -0.596
v 0.4398125 0.2625 -0.596
v 0.4398125 2.707168E-17 0.4246
v 0.4398125 2.707168E-17 -0.4502
v -0.4496125 2.707168E-17 0.4246
v -0.4496125 2.707168E-17 -0.4502
v -0.59785 0.0375 -0.4502
v -0.59785 0.2625 -0.4502
v -0.59785 0.0375 0.4246
v -0.59785 0.2625 0.4246

vn 0 0 1.1664
vn 1.1859 0 0
vn 0 0.3 0
vn 0 0 -1.1664
vn 0 -0.3 0
vn -1.1859 0 0
vn 0.6846796 0.1732051 -0.6734213
vn 0.8385579 0 -0.8247693
vn 0 -0.212132 -0.8247693
vn 0.6846796 -0.1732051 -0.6734213
vn 0.8385579 -0.212132 0
vn 0.8385579 0.212132 0
vn 0.6846796 0.1732051 0.6734213
vn 0.8385579 0 0.8247693
vn 0.6846796 -0.1732051 0.6734213
vn 0 0.212132 0.8247693
vn -0.6846796 0.1732051 0.6734213
vn -0.8385579 -0.212132 0
vn 0 -0.212132 0.8247693
vn -0.8385579 0 0.8247693
vn -0.6846796 -0.1732051 0.6734213
vn -0.6846796 -0.1732051 -0.6734213
vn -0.8385579 0 -0.8247693
vn -0.8385579 0.212132 0
vn 0 0.212132 -0.8247693
vn -0.6846796 0.1732051 -0.6734213

vt 0.4398125 0.0375
vt -0.4496125 0.0375
vt 0.4398125 0.2625
vt -0.4496125 0.2625
vt 0.4502 0.2625
vt 0.4502 0.0375
vt -0.4246 0.2625
vt -0.4246 0.0375
vt -0.4398125 -0.4502
vt -0.4398125 0.4246
vt 0.4496125 -0.4502
vt 0.4496125 0.4246
vt 0.4496125 0.0375
vt -0.4398125 0.0375
vt 0.4496125 0.2625
vt -0.4398125 0.2625
vt -0.4398125 -0.4246
vt -0.4398125 0.4502
vt 0.4496125 -0.4246
vt 0.4496125 0.4502
vt -0.4502 0.0375
vt -0.4502 0.2625
vt 0.4246 0.0375
vt 0.4246 0.2625
vt -0.4398125 -0.596
vt -0.58805 -0.4502
vt -0.58805 0.0375
vt -0.58805 0.2625
vt -0.4398125 0.596
vt 0.4496125 0.596
vt -0.58805 0.4502
vt -0.58805 -0.4246
vt -0.58805 0.4246
vt -0.4398125 0.5704
vt 0.58805 0.0375
vt 0.58805 0.2625
vt -0.4398125 -0.5704
vt 0.4496125 0.5704
vt 0.59785 0.4246
vt 0.59785 0.4502
vt 0.59785 -0.4246
vt 0.4496125 -0.5704
vt -0.59785 0.0375
vt -0.59785 0.2625
vt 0.59785 0.0375
vt 0.59785 0.2625
vt 0.59785 -0.4502
vt 0.4496125 -0.596

usemtl _defaultMat(Clone)

f 113/198/73 112/197/73 111/196/73
f 112/197/73 113/198/73 114/199/73
f 117/202/74 116/201/74 115/200/74
f 116/201/74 117/202/74 118/203/74
f 121/206/75 120/205/75 119/204/75
f 120/205/75 121/206/75 122/207/75
f 125/210/76 124/209/76 123/208/76
f 124/209/76 125/210/76 126/211/76
f 129/214/77 128/213/77 127/212/77
f 128/213/77 129/214/77 130/215/77
f 133/218/78 132/217/78 131/216/78
f 132/217/78 133/218/78 134/219/78
f 119/204/79 115/221/79 126/220/79
f 126/211/80 116/222/80 124/209/80
f 116/222/80 126/211/80 115/223/80
f 130/215/81 124/224/81 128/213/81
f 124/224/81 130/215/81 123/225/81
f 124/224/82 116/226/82 128/213/82
f 127/212/83 116/226/83 118/227/83
f 116/226/83 127/212/83 128/213/83
f 119/204/84 117/228/84 115/221/84
f 117/228/84 119/204/84 120/205/84
f 120/205/85 113/229/85 117/228/85
f 117/231/86 111/196/86 118/230/86
f 111/196/86 117/231/86 113/198/86
f 111/232/87 127/212/87 118/227/87
f 120/205/88 114/233/88 113/229/88
f 114/233/88 120/205/88 122/207/88
f 114/233/89 122/207/89 134/234/89
f 129/214/90 131/235/90 130/215/90
f 131/235/90 129/214/90 133/236/90
f 111/232/91 129/214/91 127/212/91
f 129/214/91 111/232/91 112/237/91
f 112/197/92 134/239/92 133/238/92
f 134/239/92 112/197/92 114/199/92
f 112/237/93 133/236/93 129/214/93
f 131/235/94 123/225/94 130/215/94
f 131/240/95 125/210/95 123/208/95
f 125/210/95 131/240/95 132/241/95
f 134/234/96 121/206/96 132/242/96
f 121/206/96 134/234/96 122/207/96
f 125/243/97 119/204/97 126/220/97
f 119/204/97 125/243/97 121/206/97
f 121/206/98 125/243/98 132/242/98

