# Created by Kenney (www.kenney.nl)

mtllib AFM_PROFILER_ProfileInput.mtl

g mergedBlocks

v 0.375 0.125 0.1
v -0.375 0.125 0.1
v 0.375 0.875 0.1
v -0.375 0.875 0.1
v 0.5 0.875 -0.075
v 0.5 0.125 -0.075
v 0.5 0.875 0.075
v 0.5 0.125 0.075
v 0.375 1 -0.075
v 0.375 1 0.075
v -0.375 1 -0.075
v -0.375 1 0.075
v -0.375 0.125 -0.1
v 0.375 0.125 -0.1
v -0.375 0.875 -0.1
v 0.375 0.875 -0.1
v 0.375 9.023893E-17 0.075
v 0.375 9.023893E-17 -0.075
v -0.375 9.023893E-17 0.075
v -0.375 9.023893E-17 -0.075
v -0.5 0.125 -0.075
v -0.5 0.875 -0.075
v -0.5 0.125 0.075
v -0.5 0.875 0.075
v 0.4 0.7 0.15
v 0.4 0.7 0.1
v 0.09999999 0.7 0.15
v 0.09999999 0.7 0.1
v 0.09999999 0.8 0.1
v 0.09999999 0.8 0.15
v 0.4 0.8 0.1
v 0.4 0.8 0.15
v -0.09999999 0.7 0.15
v -0.09999999 0.7 0.1
v -0.4 0.7 0.15
v -0.4 0.7 0.1
v -0.4 0.8 0.1
v -0.4 0.8 0.15
v -0.09999999 0.8 0.1
v -0.09999999 0.8 0.15

vn 0 0 1
vn 1 0 0
vn 0 1 0
vn 0 0 -1
vn 0 -1 0
vn -1 0 0
vn 0.1924501 0.1924501 -0.9622505
vn 0.1961161 0 -0.9805807
vn 0 -0.1961161 -0.9805807
vn 0.1924501 -0.1924501 -0.9622505
vn 0.7071068 -0.7071068 0
vn 0.7071068 0.7071068 0
vn 0.1924501 0.1924501 0.9622505
vn 0.1961161 0 0.9805807
vn 0.1924501 -0.1924501 0.9622505
vn 0 0.1961161 0.9805807
vn -0.1924501 0.1924501 0.9622505
vn -0.7071068 -0.7071068 0
vn 0 -0.1961161 0.9805807
vn -0.1961161 0 0.9805807
vn -0.1924501 -0.1924501 0.9622505
vn -0.1924501 -0.1924501 -0.9622505
vn -0.1961161 0 -0.9805807
vn -0.7071068 0.7071068 0
vn 0 0.1961161 -0.9805807
vn -0.1924501 0.1924501 -0.9622505

vt 0.375 0.125
vt -0.375 0.125
vt 0.375 0.875
vt -0.375 0.875
vt 0.075 0.875
vt 0.075 0.125
vt -0.075 0.875
vt -0.075 0.125
vt -0.375 -0.075
vt -0.375 0.075
vt 0.375 -0.075
vt 0.375 0.075
vt -0.5 0.875
vt -0.375 1
vt -0.5 0.125
vt -0.375 9.023893E-17
vt 0.375 9.023893E-17
vt -0.5 -0.075
vt -0.5 0.075
vt 0.5 0.875
vt 0.375 1
vt 0.5 0.125
vt 0.5 0.075
vt 0.5 -0.075
vt -0.4 -0.15
vt -0.4 -0.1
vt -0.09999999 -0.15
vt -0.09999999 -0.1
vt 0.1 0.7
vt 0.1 0.8
vt 0.15 0.7
vt 0.15 0.8
vt -0.09999999 0.7
vt -0.4 0.7
vt -0.09999999 0.8
vt -0.4 0.8
vt 0.4 0.7
vt 0.09999999 0.7
vt 0.4 0.8
vt 0.09999999 0.8
vt -0.1 0.8
vt -0.1 0.7
vt -0.15 0.8
vt -0.15 0.7
vt -0.4 0.1
vt -0.4 0.15
vt -0.09999999 0.1
vt -0.09999999 0.15
vt 0.09999999 -0.15
vt 0.09999999 -0.1
vt 0.4 -0.15
vt 0.4 -0.1
vt 0.09999999 0.1
vt 0.09999999 0.15
vt 0.4 0.1
vt 0.4 0.15

usemtl custom1(Clone)

f 3/3/1 2/2/1 1/1/1
f 2/2/1 3/3/1 4/4/1
f 7/7/2 6/6/2 5/5/2
f 6/6/2 7/7/2 8/8/2
f 11/11/3 10/10/3 9/9/3
f 10/10/3 11/11/3 12/12/3
f 15/3/4 14/2/4 13/1/4
f 14/2/4 15/3/4 16/4/4
f 19/11/5 18/10/5 17/9/5
f 18/10/5 19/11/5 20/12/5
f 23/6/6 22/7/6 21/8/6
f 22/7/6 23/6/6 24/5/6
f 9/14/7 5/13/7 16/4/7
f 16/4/8 6/15/8 14/2/8
f 6/15/8 16/4/8 5/13/8
f 20/17/9 14/2/9 18/16/9
f 14/2/9 20/17/9 13/1/9
f 14/2/10 6/15/10 18/16/10
f 17/9/11 6/19/11 8/18/11
f 6/19/11 17/9/11 18/10/11
f 9/9/12 7/19/12 5/18/12
f 7/19/12 9/9/12 10/10/12
f 10/21/13 3/3/13 7/20/13
f 7/20/14 1/1/14 8/22/14
f 1/1/14 7/20/14 3/3/14
f 1/1/15 17/17/15 8/22/15
f 10/21/16 4/4/16 3/3/16
f 4/4/16 10/21/16 12/14/16
f 4/4/17 12/14/17 24/13/17
f 19/11/18 21/23/18 20/12/18
f 21/23/18 19/11/18 23/24/18
f 1/1/19 19/16/19 17/17/19
f 19/16/19 1/1/19 2/2/19
f 2/2/20 24/13/20 23/15/20
f 24/13/20 2/2/20 4/4/20
f 2/2/21 23/15/21 19/16/21
f 21/22/22 13/1/22 20/17/22
f 21/22/23 15/3/23 13/1/23
f 15/3/23 21/22/23 22/20/23
f 24/23/24 11/11/24 22/24/24
f 11/11/24 24/23/24 12/12/24
f 15/3/25 9/14/25 16/4/25
f 9/14/25 15/3/25 11/21/25
f 11/21/26 15/3/26 22/20/26

usemtl custom2(Clone)

f 27/27/5 26/26/5 25/25/5
f 26/26/5 27/27/5 28/28/5
f 27/31/6 29/30/6 28/29/6
f 29/30/6 27/31/6 30/32/6
f 29/35/4 26/34/4 28/33/4
f 26/34/4 29/35/4 31/36/4
f 32/39/1 27/38/1 25/37/1
f 27/38/1 32/39/1 30/40/1
f 32/43/2 26/42/2 31/41/2
f 26/42/2 32/43/2 25/44/2
f 29/47/3 32/46/3 31/45/3
f 32/46/3 29/47/3 30/48/3
f 35/51/5 34/50/5 33/49/5
f 34/50/5 35/51/5 36/52/5
f 35/31/6 37/30/6 36/29/6
f 37/30/6 35/31/6 38/32/6
f 37/39/4 34/38/4 36/37/4
f 34/38/4 37/39/4 39/40/4
f 40/35/1 35/34/1 33/33/1
f 35/34/1 40/35/1 38/36/1
f 40/43/2 34/42/2 39/41/2
f 34/42/2 40/43/2 33/44/2
f 37/55/3 40/54/3 39/53/3
f 40/54/3 37/55/3 38/56/3

